<svg width="44" height="44" viewBox="0 0 44 44" fill="none" xmlns="http://www.w3.org/2000/svg">
<g clip-path="url(#clip0_46_333)">
<path d="M44 22C44 17.7833 43.8167 13.9333 43.0833 11.7333C42.35 9.16667 41.4333 6.78333 39.2333 4.58333C36.4833 2.01667 34.1 1.28333 30.4333 0.55C27.8667 0.183333 24.75 0 22.9167 0H21.2667C19.25 0 16.3167 0.183333 13.5667 0.55C9.9 1.28333 7.33333 2.2 4.76667 4.58333C2.38333 6.78333 1.65 9.16667 0.916667 11.7333C0.183333 13.9333 0 17.7833 0 22C0 26.2167 0.183333 30.0667 0.916667 32.2667C1.65 34.8333 2.56667 37.2167 4.76667 39.4167C7.51667 41.9833 9.9 42.7167 13.5667 43.45C16.5 44 20.1667 44 22 44C23.8333 44 27.5 44 30.6167 43.45C34.1 42.7167 36.6667 41.9833 39.4167 39.4167C41.6167 37.4 42.5333 35.0167 43.2667 32.2667C43.8167 30.0667 44 26.2167 44 22Z" fill="#379DF1"/>
<path d="M34.1 28.0499V32.8166C34.1 33.5499 33.55 34.0999 32.8167 34.0999H31.35C19.6167 34.0999 9.90002 24.3832 9.90002 12.6499V11.1832C10.0834 10.4499 10.6334 9.8999 11.1834 9.8999H15.95C16.3167 9.8999 16.5 10.0832 16.6834 10.6332C16.6834 10.8166 16.6834 10.9999 16.8667 11.3666C17.05 13.1999 17.6 15.0332 18.5167 16.6832C18.7 16.8666 18.5167 17.2332 18.3334 17.4166L15.4 19.2499C17.05 23.4666 20.5334 26.5832 24.5667 28.4166L26.5834 25.4832C26.7667 25.2999 27.1334 25.2999 27.3167 25.2999C28.9667 26.0332 30.8 26.5832 32.6334 26.9499C32.8167 26.9499 33 26.9499 33.3667 27.1332C33.7334 27.3166 34.1 27.8666 34.1 28.0499Z" fill="white"/>
</g>
<defs>
<clipPath id="clip0_46_333">
<rect width="44" height="44" fill="white"/>
</clipPath>
</defs>
</svg>
