<svg width="220" height="220" viewBox="0 0 220 220" fill="none" xmlns="http://www.w3.org/2000/svg">
<rect width="220" height="220" rx="15" fill="white"/>
<path d="M83.864 39.112C83.1173 39.112 82.4453 38.984 81.848 38.728C81.2507 38.4613 80.7813 38.088 80.44 37.608C80.0987 37.128 79.928 36.568 79.928 35.928H81.88C81.9227 36.408 82.1093 36.8027 82.44 37.112C82.7813 37.4213 83.256 37.576 83.864 37.576C84.4933 37.576 84.984 37.4267 85.336 37.128C85.688 36.8187 85.864 36.424 85.864 35.944C85.864 35.5707 85.752 35.2667 85.528 35.032C85.3147 34.7973 85.0427 34.616 84.712 34.488C84.392 34.36 83.944 34.2213 83.368 34.072C82.6427 33.88 82.0507 33.688 81.592 33.496C81.144 33.2933 80.76 32.984 80.44 32.568C80.12 32.152 79.96 31.5973 79.96 30.904C79.96 30.264 80.12 29.704 80.44 29.224C80.76 28.744 81.208 28.376 81.784 28.12C82.36 27.864 83.0267 27.736 83.784 27.736C84.8613 27.736 85.7413 28.008 86.424 28.552C87.1173 29.0853 87.5013 29.8213 87.576 30.76H85.56C85.528 30.3547 85.336 30.008 84.984 29.72C84.632 29.432 84.168 29.288 83.592 29.288C83.0693 29.288 82.6427 29.4213 82.312 29.688C81.9813 29.9547 81.816 30.3387 81.816 30.84C81.816 31.1813 81.9173 31.464 82.12 31.688C82.3333 31.9013 82.6 32.072 82.92 32.2C83.24 32.328 83.6773 32.4667 84.232 32.616C84.968 32.8187 85.5653 33.0213 86.024 33.224C86.4933 33.4267 86.888 33.7413 87.208 34.168C87.5387 34.584 87.704 35.144 87.704 35.848C87.704 36.4133 87.5493 36.9467 87.24 37.448C86.9413 37.9493 86.4987 38.3547 85.912 38.664C85.336 38.9627 84.6533 39.112 83.864 39.112ZM90.7843 29.016C90.4536 29.016 90.1763 28.904 89.9523 28.68C89.7283 28.456 89.6163 28.1787 89.6163 27.848C89.6163 27.5173 89.7283 27.24 89.9523 27.016C90.1763 26.792 90.4536 26.68 90.7843 26.68C91.1043 26.68 91.3763 26.792 91.6003 27.016C91.8243 27.24 91.9363 27.5173 91.9363 27.848C91.9363 28.1787 91.8243 28.456 91.6003 28.68C91.3763 28.904 91.1043 29.016 90.7843 29.016ZM91.6803 30.184V39H89.8563V30.184H91.6803ZM97.627 30.04C98.3097 30.04 98.9123 30.1787 99.435 30.456C99.9683 30.7227 100.384 31.0587 100.683 31.464V30.184H102.523V39.144C102.523 39.9547 102.352 40.6747 102.011 41.304C101.67 41.944 101.174 42.4453 100.523 42.808C99.883 43.1707 99.115 43.352 98.219 43.352C97.0243 43.352 96.0323 43.0693 95.243 42.504C94.4537 41.9493 94.0057 41.192 93.899 40.232H95.707C95.8457 40.6907 96.139 41.0587 96.587 41.336C97.0457 41.624 97.5897 41.768 98.219 41.768C98.955 41.768 99.547 41.544 99.995 41.096C100.454 40.648 100.683 39.9973 100.683 39.144V37.672C100.374 38.088 99.9523 38.44 99.419 38.728C98.8963 39.0053 98.299 39.144 97.627 39.144C96.859 39.144 96.155 38.952 95.515 38.568C94.8857 38.1733 94.3843 37.6293 94.011 36.936C93.6483 36.232 93.467 35.4373 93.467 34.552C93.467 33.6667 93.6483 32.8827 94.011 32.2C94.3843 31.5173 94.8857 30.9893 95.515 30.616C96.155 30.232 96.859 30.04 97.627 30.04ZM100.683 34.584C100.683 33.976 100.555 33.448 100.299 33C100.054 32.552 99.7283 32.2107 99.323 31.976C98.9177 31.7413 98.4803 31.624 98.011 31.624C97.5417 31.624 97.1043 31.7413 96.699 31.976C96.2937 32.2 95.963 32.536 95.707 32.984C95.4617 33.4213 95.339 33.944 95.339 34.552C95.339 35.16 95.4617 35.6933 95.707 36.152C95.963 36.6107 96.2937 36.9627 96.699 37.208C97.115 37.4427 97.5523 37.56 98.011 37.56C98.4803 37.56 98.9177 37.4427 99.323 37.208C99.7283 36.9733 100.054 36.632 100.299 36.184C100.555 35.7253 100.683 35.192 100.683 34.584ZM109.367 30.04C110.06 30.04 110.679 30.184 111.223 30.472C111.777 30.76 112.209 31.1867 112.519 31.752C112.828 32.3173 112.983 33 112.983 33.8V39H111.175V34.072C111.175 33.2827 110.977 32.68 110.583 32.264C110.188 31.8373 109.649 31.624 108.967 31.624C108.284 31.624 107.74 31.8373 107.335 32.264C106.94 32.68 106.743 33.2827 106.743 34.072V39H104.919V30.184H106.743V31.192C107.041 30.8293 107.42 30.5467 107.879 30.344C108.348 30.1413 108.844 30.04 109.367 30.04ZM121.274 27.88V34.968C121.274 35.8107 121.492 36.4453 121.93 36.872C122.378 37.2987 122.996 37.512 123.786 37.512C124.586 37.512 125.204 37.2987 125.642 36.872C126.09 36.4453 126.314 35.8107 126.314 34.968V27.88H128.138V34.936C128.138 35.8427 127.94 36.6107 127.546 37.24C127.151 37.8693 126.623 38.3387 125.962 38.648C125.3 38.9573 124.57 39.112 123.77 39.112C122.97 39.112 122.239 38.9573 121.578 38.648C120.927 38.3387 120.41 37.8693 120.026 37.24C119.642 36.6107 119.45 35.8427 119.45 34.936V27.88H121.274ZM132.337 31.48C132.646 31.0747 133.067 30.7333 133.601 30.456C134.134 30.1787 134.737 30.04 135.409 30.04C136.177 30.04 136.875 30.232 137.505 30.616C138.145 30.9893 138.646 31.5173 139.009 32.2C139.371 32.8827 139.553 33.6667 139.553 34.552C139.553 35.4373 139.371 36.232 139.009 36.936C138.646 37.6293 138.145 38.1733 137.505 38.568C136.875 38.952 136.177 39.144 135.409 39.144C134.737 39.144 134.139 39.0107 133.617 38.744C133.094 38.4667 132.667 38.1253 132.337 37.72V43.192H130.513V30.184H132.337V31.48ZM137.697 34.552C137.697 33.944 137.569 33.4213 137.312 32.984C137.067 32.536 136.737 32.2 136.321 31.976C135.915 31.7413 135.478 31.624 135.009 31.624C134.55 31.624 134.113 31.7413 133.697 31.976C133.291 32.2107 132.961 32.552 132.705 33C132.459 33.448 132.337 33.976 132.337 34.584C132.337 35.192 132.459 35.7253 132.705 36.184C132.961 36.632 133.291 36.9733 133.697 37.208C134.113 37.4427 134.55 37.56 135.009 37.56C135.478 37.56 135.915 37.4427 136.321 37.208C136.737 36.9627 137.067 36.6107 137.312 36.152C137.569 35.6933 137.697 35.16 137.697 34.552Z" fill="black"/>
<rect x="25" y="59" width="170" height="34" rx="17" fill="#EFEFEF"/>
<path d="M49.75 81H48.476L43.352 73.23V81H42.078V71.228H43.352L48.476 78.984V71.228H49.75V81ZM51.4458 77.136C51.4458 76.352 51.6044 75.666 51.9218 75.078C52.2391 74.4807 52.6731 74.0187 53.2238 73.692C53.7838 73.3653 54.4044 73.202 55.0858 73.202C55.7578 73.202 56.3411 73.3467 56.8358 73.636C57.3304 73.9253 57.6991 74.2893 57.9418 74.728V73.328H59.2298V81H57.9418V79.572C57.6898 80.02 57.3118 80.3933 56.8078 80.692C56.3131 80.9813 55.7344 81.126 55.0718 81.126C54.3904 81.126 53.7744 80.958 53.2238 80.622C52.6731 80.286 52.2391 79.8147 51.9218 79.208C51.6044 78.6013 51.4458 77.9107 51.4458 77.136ZM57.9418 77.15C57.9418 76.5713 57.8251 76.0673 57.5918 75.638C57.3584 75.2087 57.0411 74.882 56.6398 74.658C56.2478 74.4247 55.8138 74.308 55.3378 74.308C54.8618 74.308 54.4278 74.42 54.0358 74.644C53.6438 74.868 53.3311 75.1947 53.0978 75.624C52.8644 76.0533 52.7478 76.5573 52.7478 77.136C52.7478 77.724 52.8644 78.2373 53.0978 78.676C53.3311 79.1053 53.6438 79.4367 54.0358 79.67C54.4278 79.894 54.8618 80.006 55.3378 80.006C55.8138 80.006 56.2478 79.894 56.6398 79.67C57.0411 79.4367 57.3584 79.1053 57.5918 78.676C57.8251 78.2373 57.9418 77.7287 57.9418 77.15ZM70.6087 73.188C71.206 73.188 71.738 73.314 72.2047 73.566C72.6714 73.8087 73.04 74.1773 73.3107 74.672C73.5814 75.1667 73.7167 75.7687 73.7167 76.478V81H72.4567V76.66C72.4567 75.8947 72.2654 75.3113 71.8827 74.91C71.5094 74.4993 71.0007 74.294 70.3567 74.294C69.694 74.294 69.1667 74.5087 68.7747 74.938C68.3827 75.358 68.1867 75.9693 68.1867 76.772V81H66.9267V76.66C66.9267 75.8947 66.7354 75.3113 66.3527 74.91C65.9794 74.4993 65.4707 74.294 64.8267 74.294C64.164 74.294 63.6367 74.5087 63.2447 74.938C62.8527 75.358 62.6567 75.9693 62.6567 76.772V81H61.3827V73.328H62.6567V74.434C62.9087 74.0327 63.2447 73.7247 63.6647 73.51C64.094 73.2953 64.5654 73.188 65.0787 73.188C65.7227 73.188 66.292 73.3327 66.7867 73.622C67.2814 73.9113 67.65 74.336 67.8927 74.896C68.1074 74.3547 68.462 73.9347 68.9567 73.636C69.4514 73.3373 70.002 73.188 70.6087 73.188ZM82.8065 76.87C82.8065 77.1127 82.7925 77.3693 82.7645 77.64H76.6325C76.6792 78.396 76.9358 78.9887 77.4025 79.418C77.8785 79.838 78.4525 80.048 79.1245 80.048C79.6752 80.048 80.1325 79.922 80.4965 79.67C80.8698 79.4087 81.1312 79.0633 81.2805 78.634H82.6525C82.4472 79.3713 82.0365 79.9733 81.4205 80.44C80.8045 80.8973 80.0392 81.126 79.1245 81.126C78.3965 81.126 77.7432 80.9627 77.1645 80.636C76.5952 80.3093 76.1472 79.8473 75.8205 79.25C75.4938 78.6433 75.3305 77.9433 75.3305 77.15C75.3305 76.3567 75.4892 75.6613 75.8065 75.064C76.1238 74.4667 76.5672 74.0093 77.1365 73.692C77.7152 73.3653 78.3778 73.202 79.1245 73.202C79.8525 73.202 80.4965 73.3607 81.0565 73.678C81.6165 73.9953 82.0458 74.434 82.3445 74.994C82.6525 75.5447 82.8065 76.17 82.8065 76.87ZM81.4905 76.604C81.4905 76.1187 81.3832 75.7033 81.1685 75.358C80.9538 75.0033 80.6598 74.7373 80.2865 74.56C79.9225 74.3733 79.5165 74.28 79.0685 74.28C78.4245 74.28 77.8738 74.4853 77.4165 74.896C76.9685 75.3067 76.7118 75.876 76.6465 76.604H81.4905Z" fill="#6A7782"/>
<rect x="25" y="103" width="170" height="34" rx="17" fill="#EFEFEF"/>
<path d="M43.352 116.278V119.54H46.908V120.59H43.352V123.95H47.328V125H42.078V115.228H47.328V116.278H43.352ZM58.4817 117.188C59.0791 117.188 59.6111 117.314 60.0777 117.566C60.5444 117.809 60.9131 118.177 61.1837 118.672C61.4544 119.167 61.5897 119.769 61.5897 120.478V125H60.3297V120.66C60.3297 119.895 60.1384 119.311 59.7557 118.91C59.3824 118.499 58.8737 118.294 58.2297 118.294C57.5671 118.294 57.0397 118.509 56.6477 118.938C56.2557 119.358 56.0597 119.969 56.0597 120.772V125H54.7997V120.66C54.7997 119.895 54.6084 119.311 54.2257 118.91C53.8524 118.499 53.3437 118.294 52.6997 118.294C52.0371 118.294 51.5097 118.509 51.1177 118.938C50.7257 119.358 50.5297 119.969 50.5297 120.772V125H49.2557V117.328H50.5297V118.434C50.7817 118.033 51.1177 117.725 51.5377 117.51C51.9671 117.295 52.4384 117.188 52.9517 117.188C53.5957 117.188 54.1651 117.333 54.6597 117.622C55.1544 117.911 55.5231 118.336 55.7657 118.896C55.9804 118.355 56.3351 117.935 56.8297 117.636C57.3244 117.337 57.8751 117.188 58.4817 117.188ZM63.2036 121.136C63.2036 120.352 63.3622 119.666 63.6796 119.078C63.9969 118.481 64.4309 118.019 64.9816 117.692C65.5416 117.365 66.1622 117.202 66.8436 117.202C67.5156 117.202 68.0989 117.347 68.5936 117.636C69.0882 117.925 69.4569 118.289 69.6996 118.728V117.328H70.9876V125H69.6996V123.572C69.4476 124.02 69.0696 124.393 68.5656 124.692C68.0709 124.981 67.4922 125.126 66.8296 125.126C66.1482 125.126 65.5322 124.958 64.9816 124.622C64.4309 124.286 63.9969 123.815 63.6796 123.208C63.3622 122.601 63.2036 121.911 63.2036 121.136ZM69.6996 121.15C69.6996 120.571 69.5829 120.067 69.3496 119.638C69.1162 119.209 68.7989 118.882 68.3976 118.658C68.0056 118.425 67.5716 118.308 67.0956 118.308C66.6196 118.308 66.1856 118.42 65.7936 118.644C65.4016 118.868 65.0889 119.195 64.8556 119.624C64.6222 120.053 64.5056 120.557 64.5056 121.136C64.5056 121.724 64.6222 122.237 64.8556 122.676C65.0889 123.105 65.4016 123.437 65.7936 123.67C66.1856 123.894 66.6196 124.006 67.0956 124.006C67.5716 124.006 68.0056 123.894 68.3976 123.67C68.7989 123.437 69.1162 123.105 69.3496 122.676C69.5829 122.237 69.6996 121.729 69.6996 121.15ZM73.7985 116.082C73.5558 116.082 73.3505 115.998 73.1825 115.83C73.0145 115.662 72.9305 115.457 72.9305 115.214C72.9305 114.971 73.0145 114.766 73.1825 114.598C73.3505 114.43 73.5558 114.346 73.7985 114.346C74.0318 114.346 74.2278 114.43 74.3865 114.598C74.5545 114.766 74.6385 114.971 74.6385 115.214C74.6385 115.457 74.5545 115.662 74.3865 115.83C74.2278 115.998 74.0318 116.082 73.7985 116.082ZM74.4145 117.328V125H73.1405V117.328H74.4145ZM77.8598 114.64V125H76.5858V114.64H77.8598Z" fill="#6A7782"/>
<rect x="25" y="156" width="170" height="34" rx="17" fill="#0A66C2"/>
<path d="M87.256 178.098C86.6027 178.098 86.0147 177.986 85.492 177.762C84.9693 177.529 84.5587 177.202 84.26 176.782C83.9613 176.362 83.812 175.872 83.812 175.312H85.52C85.5573 175.732 85.7207 176.077 86.01 176.348C86.3087 176.619 86.724 176.754 87.256 176.754C87.8067 176.754 88.236 176.623 88.544 176.362C88.852 176.091 89.006 175.746 89.006 175.326C89.006 174.999 88.908 174.733 88.712 174.528C88.5253 174.323 88.2873 174.164 87.998 174.052C87.718 173.94 87.326 173.819 86.822 173.688C86.1873 173.52 85.6693 173.352 85.268 173.184C84.876 173.007 84.54 172.736 84.26 172.372C83.98 172.008 83.84 171.523 83.84 170.916C83.84 170.356 83.98 169.866 84.26 169.446C84.54 169.026 84.932 168.704 85.436 168.48C85.94 168.256 86.5233 168.144 87.186 168.144C88.1287 168.144 88.8987 168.382 89.496 168.858C90.1027 169.325 90.4387 169.969 90.504 170.79H88.74C88.712 170.435 88.544 170.132 88.236 169.88C87.928 169.628 87.522 169.502 87.018 169.502C86.5607 169.502 86.1873 169.619 85.898 169.852C85.6087 170.085 85.464 170.421 85.464 170.86C85.464 171.159 85.5527 171.406 85.73 171.602C85.9167 171.789 86.15 171.938 86.43 172.05C86.71 172.162 87.0927 172.283 87.578 172.414C88.222 172.591 88.7447 172.769 89.146 172.946C89.5567 173.123 89.902 173.399 90.182 173.772C90.4713 174.136 90.616 174.626 90.616 175.242C90.616 175.737 90.4807 176.203 90.21 176.642C89.9487 177.081 89.5613 177.435 89.048 177.706C88.544 177.967 87.9467 178.098 87.256 178.098ZM93.3112 169.264C93.0219 169.264 92.7792 169.166 92.5832 168.97C92.3872 168.774 92.2892 168.531 92.2892 168.242C92.2892 167.953 92.3872 167.71 92.5832 167.514C92.7792 167.318 93.0219 167.22 93.3112 167.22C93.5912 167.22 93.8292 167.318 94.0252 167.514C94.2212 167.71 94.3192 167.953 94.3192 168.242C94.3192 168.531 94.2212 168.774 94.0252 168.97C93.8292 169.166 93.5912 169.264 93.3112 169.264ZM94.0952 170.286V178H92.4992V170.286H94.0952ZM99.2986 170.16C99.896 170.16 100.423 170.281 100.881 170.524C101.347 170.757 101.711 171.051 101.973 171.406V170.286H103.583V178.126C103.583 178.835 103.433 179.465 103.135 180.016C102.836 180.576 102.402 181.015 101.833 181.332C101.273 181.649 100.601 181.808 99.8166 181.808C98.7713 181.808 97.9033 181.561 97.2126 181.066C96.522 180.581 96.13 179.918 96.0366 179.078H97.6186C97.74 179.479 97.9966 179.801 98.3886 180.044C98.79 180.296 99.266 180.422 99.8166 180.422C100.461 180.422 100.979 180.226 101.371 179.834C101.772 179.442 101.973 178.873 101.973 178.126V176.838C101.702 177.202 101.333 177.51 100.867 177.762C100.409 178.005 99.8866 178.126 99.2986 178.126C98.6266 178.126 98.0106 177.958 97.4506 177.622C96.9 177.277 96.4613 176.801 96.1346 176.194C95.8173 175.578 95.6586 174.883 95.6586 174.108C95.6586 173.333 95.8173 172.647 96.1346 172.05C96.4613 171.453 96.9 170.991 97.4506 170.664C98.0106 170.328 98.6266 170.16 99.2986 170.16ZM101.973 174.136C101.973 173.604 101.861 173.142 101.637 172.75C101.422 172.358 101.137 172.059 100.783 171.854C100.428 171.649 100.045 171.546 99.6346 171.546C99.224 171.546 98.8413 171.649 98.4866 171.854C98.132 172.05 97.8426 172.344 97.6186 172.736C97.404 173.119 97.2966 173.576 97.2966 174.108C97.2966 174.64 97.404 175.107 97.6186 175.508C97.8426 175.909 98.132 176.217 98.4866 176.432C98.8506 176.637 99.2333 176.74 99.6346 176.74C100.045 176.74 100.428 176.637 100.783 176.432C101.137 176.227 101.422 175.928 101.637 175.536C101.861 175.135 101.973 174.668 101.973 174.136ZM109.571 170.16C110.178 170.16 110.719 170.286 111.195 170.538C111.68 170.79 112.058 171.163 112.329 171.658C112.6 172.153 112.735 172.75 112.735 173.45V178H111.153V173.688C111.153 172.997 110.98 172.47 110.635 172.106C110.29 171.733 109.818 171.546 109.221 171.546C108.624 171.546 108.148 171.733 107.793 172.106C107.448 172.47 107.275 172.997 107.275 173.688V178H105.679V170.286H107.275V171.168C107.536 170.851 107.868 170.603 108.269 170.426C108.68 170.249 109.114 170.16 109.571 170.16ZM119.989 168.27V174.472C119.989 175.209 120.181 175.765 120.563 176.138C120.955 176.511 121.497 176.698 122.187 176.698C122.887 176.698 123.429 176.511 123.811 176.138C124.203 175.765 124.399 175.209 124.399 174.472V168.27H125.995V174.444C125.995 175.237 125.823 175.909 125.477 176.46C125.132 177.011 124.67 177.421 124.091 177.692C123.513 177.963 122.873 178.098 122.173 178.098C121.473 178.098 120.834 177.963 120.255 177.692C119.686 177.421 119.233 177.011 118.897 176.46C118.561 175.909 118.393 175.237 118.393 174.444V168.27H119.989ZM129.669 171.42C129.94 171.065 130.309 170.767 130.775 170.524C131.242 170.281 131.769 170.16 132.357 170.16C133.029 170.16 133.641 170.328 134.191 170.664C134.751 170.991 135.19 171.453 135.507 172.05C135.825 172.647 135.983 173.333 135.983 174.108C135.983 174.883 135.825 175.578 135.507 176.194C135.19 176.801 134.751 177.277 134.191 177.622C133.641 177.958 133.029 178.126 132.357 178.126C131.769 178.126 131.247 178.009 130.789 177.776C130.332 177.533 129.959 177.235 129.669 176.88V181.668H128.073V170.286H129.669V171.42ZM134.359 174.108C134.359 173.576 134.247 173.119 134.023 172.736C133.809 172.344 133.519 172.05 133.155 171.854C132.801 171.649 132.418 171.546 132.007 171.546C131.606 171.546 131.223 171.649 130.859 171.854C130.505 172.059 130.215 172.358 129.991 172.75C129.777 173.142 129.669 173.604 129.669 174.136C129.669 174.668 129.777 175.135 129.991 175.536C130.215 175.928 130.505 176.227 130.859 176.432C131.223 176.637 131.606 176.74 132.007 176.74C132.418 176.74 132.801 176.637 133.155 176.432C133.519 176.217 133.809 175.909 134.023 175.508C134.247 175.107 134.359 174.64 134.359 174.108Z" fill="white"/>
</svg>
