<svg width="220" height="220" viewBox="0 0 220 220" fill="none" xmlns="http://www.w3.org/2000/svg">
<rect width="220" height="220" rx="15" fill="white"/>
<path d="M67.592 163.416C67.592 162.328 67.8427 161.352 68.344 160.488C68.856 159.624 69.544 158.952 70.408 158.472C71.2827 157.981 72.2373 157.736 73.272 157.736C74.456 157.736 75.5067 158.029 76.424 158.616C77.352 159.192 78.024 160.013 78.44 161.08H76.248C75.96 160.493 75.56 160.056 75.048 159.768C74.536 159.48 73.944 159.336 73.272 159.336C72.536 159.336 71.88 159.501 71.304 159.832C70.728 160.163 70.2747 160.637 69.944 161.256C69.624 161.875 69.464 162.595 69.464 163.416C69.464 164.237 69.624 164.957 69.944 165.576C70.2747 166.195 70.728 166.675 71.304 167.016C71.88 167.347 72.536 167.512 73.272 167.512C73.944 167.512 74.536 167.368 75.048 167.08C75.56 166.792 75.96 166.355 76.248 165.768H78.44C78.024 166.835 77.352 167.656 76.424 168.232C75.5067 168.808 74.456 169.096 73.272 169.096C72.2267 169.096 71.272 168.856 70.408 168.376C69.544 167.885 68.856 167.208 68.344 166.344C67.8427 165.48 67.592 164.504 67.592 163.416ZM79.967 164.552C79.967 163.667 80.1483 162.883 80.511 162.2C80.8843 161.517 81.3857 160.989 82.015 160.616C82.655 160.232 83.359 160.04 84.127 160.04C84.8203 160.04 85.423 160.179 85.935 160.456C86.4577 160.723 86.8737 161.059 87.183 161.464V160.184H89.023V169H87.183V167.688C86.8737 168.104 86.4523 168.451 85.919 168.728C85.3857 169.005 84.7777 169.144 84.095 169.144C83.3377 169.144 82.6443 168.952 82.015 168.568C81.3857 168.173 80.8843 167.629 80.511 166.936C80.1483 166.232 79.967 165.437 79.967 164.552ZM87.183 164.584C87.183 163.976 87.055 163.448 86.799 163C86.5537 162.552 86.2283 162.211 85.823 161.976C85.4177 161.741 84.9803 161.624 84.511 161.624C84.0417 161.624 83.6043 161.741 83.199 161.976C82.7937 162.2 82.463 162.536 82.207 162.984C81.9617 163.421 81.839 163.944 81.839 164.552C81.839 165.16 81.9617 165.693 82.207 166.152C82.463 166.611 82.7937 166.963 83.199 167.208C83.615 167.443 84.0523 167.56 84.511 167.56C84.9803 167.56 85.4177 167.443 85.823 167.208C86.2283 166.973 86.5537 166.632 86.799 166.184C87.055 165.725 87.183 165.192 87.183 164.584ZM95.8668 160.04C96.5601 160.04 97.1788 160.184 97.7228 160.472C98.2774 160.76 98.7094 161.187 99.0188 161.752C99.3281 162.317 99.4828 163 99.4828 163.8V169H97.6748V164.072C97.6748 163.283 97.4774 162.68 97.0828 162.264C96.6881 161.837 96.1494 161.624 95.4668 161.624C94.7841 161.624 94.2401 161.837 93.8348 162.264C93.4401 162.68 93.2428 163.283 93.2428 164.072V169H91.4188V160.184H93.2428V161.192C93.5414 160.829 93.9201 160.547 94.3788 160.344C94.8481 160.141 95.3441 160.04 95.8668 160.04ZM101.201 164.552C101.201 163.667 101.383 162.883 101.745 162.2C102.119 161.517 102.62 160.989 103.249 160.616C103.889 160.232 104.599 160.04 105.377 160.04C105.953 160.04 106.519 160.168 107.073 160.424C107.639 160.669 108.087 161 108.417 161.416V157.16H110.257V169H108.417V167.672C108.119 168.099 107.703 168.451 107.169 168.728C106.647 169.005 106.044 169.144 105.361 169.144C104.593 169.144 103.889 168.952 103.249 168.568C102.62 168.173 102.119 167.629 101.745 166.936C101.383 166.232 101.201 165.437 101.201 164.552ZM108.417 164.584C108.417 163.976 108.289 163.448 108.033 163C107.788 162.552 107.463 162.211 107.057 161.976C106.652 161.741 106.215 161.624 105.745 161.624C105.276 161.624 104.839 161.741 104.433 161.976C104.028 162.2 103.697 162.536 103.441 162.984C103.196 163.421 103.073 163.944 103.073 164.552C103.073 165.16 103.196 165.693 103.441 166.152C103.697 166.611 104.028 166.963 104.433 167.208C104.849 167.443 105.287 167.56 105.745 167.56C106.215 167.56 106.652 167.443 107.057 167.208C107.463 166.973 107.788 166.632 108.033 166.184C108.289 165.725 108.417 165.192 108.417 164.584ZM113.581 159.016C113.25 159.016 112.973 158.904 112.749 158.68C112.525 158.456 112.413 158.179 112.413 157.848C112.413 157.517 112.525 157.24 112.749 157.016C112.973 156.792 113.25 156.68 113.581 156.68C113.901 156.68 114.173 156.792 114.397 157.016C114.621 157.24 114.733 157.517 114.733 157.848C114.733 158.179 114.621 158.456 114.397 158.68C114.173 158.904 113.901 159.016 113.581 159.016ZM114.477 160.184V169H112.653V160.184H114.477ZM116.264 164.552C116.264 163.667 116.445 162.883 116.808 162.2C117.181 161.517 117.683 160.989 118.312 160.616C118.952 160.232 119.661 160.04 120.44 160.04C121.016 160.04 121.581 160.168 122.136 160.424C122.701 160.669 123.149 161 123.48 161.416V157.16H125.32V169H123.48V167.672C123.181 168.099 122.765 168.451 122.232 168.728C121.709 169.005 121.107 169.144 120.424 169.144C119.656 169.144 118.952 168.952 118.312 168.568C117.683 168.173 117.181 167.629 116.808 166.936C116.445 166.232 116.264 165.437 116.264 164.552ZM123.48 164.584C123.48 163.976 123.352 163.448 123.096 163C122.851 162.552 122.525 162.211 122.12 161.976C121.715 161.741 121.277 161.624 120.808 161.624C120.339 161.624 119.901 161.741 119.496 161.976C119.091 162.2 118.76 162.536 118.504 162.984C118.259 163.421 118.136 163.944 118.136 164.552C118.136 165.16 118.259 165.693 118.504 166.152C118.76 166.611 119.091 166.963 119.496 167.208C119.912 167.443 120.349 167.56 120.808 167.56C121.277 167.56 121.715 167.443 122.12 167.208C122.525 166.973 122.851 166.632 123.096 166.184C123.352 165.725 123.48 165.192 123.48 164.584ZM127.108 164.552C127.108 163.667 127.289 162.883 127.652 162.2C128.025 161.517 128.526 160.989 129.156 160.616C129.796 160.232 130.5 160.04 131.268 160.04C131.961 160.04 132.564 160.179 133.076 160.456C133.598 160.723 134.014 161.059 134.324 161.464V160.184H136.164V169H134.324V167.688C134.014 168.104 133.593 168.451 133.06 168.728C132.526 169.005 131.918 169.144 131.236 169.144C130.478 169.144 129.785 168.952 129.156 168.568C128.526 168.173 128.025 167.629 127.652 166.936C127.289 166.232 127.108 165.437 127.108 164.552ZM134.324 164.584C134.324 163.976 134.196 163.448 133.94 163C133.694 162.552 133.369 162.211 132.964 161.976C132.558 161.741 132.121 161.624 131.652 161.624C131.182 161.624 130.745 161.741 130.34 161.976C129.934 162.2 129.604 162.536 129.348 162.984C129.102 163.421 128.98 163.944 128.98 164.552C128.98 165.16 129.102 165.693 129.348 166.152C129.604 166.611 129.934 166.963 130.34 167.208C130.756 167.443 131.193 167.56 131.652 167.56C132.121 167.56 132.558 167.443 132.964 167.208C133.369 166.973 133.694 166.632 133.94 166.184C134.196 165.725 134.324 165.192 134.324 164.584ZM140.687 161.672V166.552C140.687 166.883 140.762 167.123 140.911 167.272C141.071 167.411 141.338 167.48 141.711 167.48H142.831V169H141.391C140.57 169 139.941 168.808 139.503 168.424C139.066 168.04 138.847 167.416 138.847 166.552V161.672H137.807V160.184H138.847V157.992H140.687V160.184H142.831V161.672H140.687ZM152.593 164.376C152.593 164.707 152.571 165.005 152.529 165.272H145.793C145.846 165.976 146.107 166.541 146.577 166.968C147.046 167.395 147.622 167.608 148.305 167.608C149.286 167.608 149.979 167.197 150.385 166.376H152.352C152.086 167.187 151.601 167.853 150.897 168.376C150.203 168.888 149.339 169.144 148.305 169.144C147.462 169.144 146.705 168.957 146.033 168.584C145.371 168.2 144.849 167.667 144.465 166.984C144.091 166.291 143.905 165.491 143.905 164.584C143.905 163.677 144.086 162.883 144.449 162.2C144.822 161.507 145.339 160.973 146.001 160.6C146.673 160.227 147.441 160.04 148.305 160.04C149.137 160.04 149.878 160.221 150.529 160.584C151.179 160.947 151.686 161.459 152.049 162.12C152.411 162.771 152.593 163.523 152.593 164.376ZM150.689 163.8C150.678 163.128 150.438 162.589 149.969 162.184C149.499 161.779 148.918 161.576 148.225 161.576C147.595 161.576 147.057 161.779 146.609 162.184C146.161 162.579 145.894 163.117 145.809 163.8H150.689Z" fill="black"/>
<circle cx="110" cy="91" r="40" fill="#D9D9D9"/>
<path d="M123.675 81.6641C123.675 81.5344 123.659 81.4053 123.627 81.2797C123.124 79.3239 122.204 77.4999 120.931 75.9325C119.658 74.365 118.061 73.0913 116.25 72.1984V75.375C116.25 75.7894 116.085 76.1868 115.792 76.4799C115.499 76.7729 115.102 76.9375 114.687 76.9375C114.273 76.9375 113.876 76.7729 113.583 76.4799C113.29 76.1868 113.125 75.7894 113.125 75.375V70.6875C113.125 70.2731 112.96 69.8757 112.667 69.5826C112.374 69.2896 111.977 69.125 111.562 69.125H108.437C108.023 69.125 107.626 69.2896 107.333 69.5826C107.04 69.8757 106.875 70.2731 106.875 70.6875V75.375C106.875 75.7894 106.71 76.1868 106.417 76.4799C106.124 76.7729 105.727 76.9375 105.312 76.9375C104.898 76.9375 104.501 76.7729 104.208 76.4799C103.915 76.1868 103.75 75.7894 103.75 75.375V72.1984C101.939 73.0914 100.341 74.3653 99.0683 75.933C97.7951 77.5007 96.8758 79.3251 96.3734 81.2812C96.3419 81.4068 96.3293 81.5363 96.3359 81.6656C95.7564 81.7613 95.234 82.0716 94.8727 82.5347C94.5114 82.9979 94.3376 83.58 94.3858 84.1655C94.4341 84.7509 94.7008 85.2968 95.133 85.6946C95.5653 86.0923 96.1313 86.3129 96.7187 86.3125H123.281C123.871 86.3183 124.442 86.1008 124.878 85.7037C125.315 85.3065 125.585 84.759 125.635 84.171C125.685 83.5829 125.51 82.9978 125.147 82.5329C124.783 82.068 124.258 81.7576 123.675 81.6641ZM120.937 89.4375H99.0625V91C99.0625 93.9844 100.266 96.6875 102.208 98.6625C102.203 98.7141 102.187 98.7609 102.187 98.8125V101.444L109.961 104.897L117.812 100.973V98.8125C117.812 98.7609 117.797 98.7141 117.792 98.6625C119.808 96.6218 120.938 93.8686 120.937 91V89.4375Z" fill="#0A66C2"/>
<path d="M100.625 112.875H119.375V103.684L110.698 108.023C110.492 108.126 110.266 108.182 110.035 108.188C109.805 108.193 109.576 108.147 109.366 108.053L100.625 104.167V112.875ZM97.5 103.675C93.7726 104.813 90.5534 107.205 88.3875 110.445C88.2305 110.681 88.1403 110.954 88.1266 111.237C88.1129 111.519 88.1761 111.8 88.3096 112.05C88.443 112.299 88.6417 112.508 88.8844 112.653C89.127 112.798 89.4046 112.875 89.6875 112.875H97.5V103.675ZM131.612 110.445C129.447 107.205 126.227 104.813 122.5 103.675V112.875H130.312C130.595 112.875 130.873 112.798 131.116 112.653C131.358 112.508 131.557 112.299 131.69 112.05C131.824 111.8 131.887 111.519 131.873 111.237C131.86 110.954 131.769 110.681 131.612 110.445Z" fill="#0A66C2"/>
<circle cx="139" cy="119" r="15" fill="#FE8C23"/>
<path d="M139 110L141.645 115.359L147.56 116.219L143.28 120.391L144.29 126.281L139 123.5L133.71 126.281L134.72 120.391L130.44 116.219L136.355 115.359L139 110Z" fill="white"/>
</svg>
