<svg width="220" height="220" viewBox="0 0 220 220" fill="none" xmlns="http://www.w3.org/2000/svg">
<rect width="220" height="220" rx="15" fill="white"/>
<path d="M47.444 151.965V157.724C47.444 158.409 47.6217 158.924 47.977 159.271C48.341 159.618 48.8437 159.791 49.485 159.791C50.135 159.791 50.6377 159.618 50.993 159.271C51.357 158.924 51.539 158.409 51.539 157.724V151.965H53.021V157.698C53.021 158.435 52.8607 159.059 52.54 159.57C52.2193 160.081 51.7903 160.463 51.253 160.714C50.7157 160.965 50.122 161.091 49.472 161.091C48.822 161.091 48.2283 160.965 47.691 160.714C47.1623 160.463 46.742 160.081 46.43 159.57C46.118 159.059 45.962 158.435 45.962 157.698V151.965H47.444ZM56.4326 154.89C56.6839 154.561 57.0263 154.283 57.4596 154.058C57.8929 153.833 58.3826 153.72 58.9286 153.72C59.5526 153.72 60.1203 153.876 60.6316 154.188C61.1516 154.491 61.5589 154.92 61.8536 155.475C62.1483 156.03 62.2956 156.667 62.2956 157.386C62.2956 158.105 62.1483 158.751 61.8536 159.323C61.5589 159.886 61.1516 160.328 60.6316 160.649C60.1203 160.961 59.5526 161.117 58.9286 161.117C58.3826 161.117 57.8973 161.009 57.4726 160.792C57.0479 160.567 56.7013 160.289 56.4326 159.96V164.406H54.9506V153.837H56.4326V154.89ZM60.7876 157.386C60.7876 156.892 60.6836 156.467 60.4756 156.112C60.2763 155.748 60.0076 155.475 59.6696 155.293C59.3403 155.102 58.9849 155.007 58.6036 155.007C58.2309 155.007 57.8756 155.102 57.5376 155.293C57.2083 155.484 56.9396 155.761 56.7316 156.125C56.5323 156.489 56.4326 156.918 56.4326 157.412C56.4326 157.906 56.5323 158.339 56.7316 158.712C56.9396 159.076 57.2083 159.353 57.5376 159.544C57.8756 159.735 58.2309 159.83 58.6036 159.83C58.9849 159.83 59.3403 159.735 59.6696 159.544C60.0076 159.345 60.2763 159.059 60.4756 158.686C60.6836 158.313 60.7876 157.88 60.7876 157.386ZM65.2431 151.38V161H63.7611V151.38H65.2431ZM70.2959 161.117C69.6199 161.117 69.0089 160.965 68.4629 160.662C67.9169 160.35 67.4879 159.917 67.1759 159.362C66.8639 158.799 66.7079 158.149 66.7079 157.412C66.7079 156.684 66.8682 156.038 67.1889 155.475C67.5095 154.912 67.9472 154.478 68.5019 154.175C69.0565 153.872 69.6762 153.72 70.3609 153.72C71.0455 153.72 71.6652 153.872 72.2199 154.175C72.7745 154.478 73.2122 154.912 73.5329 155.475C73.8535 156.038 74.0139 156.684 74.0139 157.412C74.0139 158.14 73.8492 158.786 73.5199 159.349C73.1905 159.912 72.7399 160.35 72.1679 160.662C71.6045 160.965 70.9805 161.117 70.2959 161.117ZM70.2959 159.83C70.6772 159.83 71.0325 159.739 71.3619 159.557C71.6999 159.375 71.9729 159.102 72.1809 158.738C72.3889 158.374 72.4929 157.932 72.4929 157.412C72.4929 156.892 72.3932 156.454 72.1939 156.099C71.9945 155.735 71.7302 155.462 71.4009 155.28C71.0715 155.098 70.7162 155.007 70.3349 155.007C69.9535 155.007 69.5982 155.098 69.2689 155.28C68.9482 155.462 68.6925 155.735 68.5019 156.099C68.3112 156.454 68.2159 156.892 68.2159 157.412C68.2159 158.183 68.4109 158.781 68.8009 159.206C69.1995 159.622 69.6979 159.83 70.2959 159.83ZM74.9849 157.386C74.9849 156.667 75.1322 156.03 75.4269 155.475C75.7302 154.92 76.1376 154.491 76.6489 154.188C77.1689 153.876 77.7409 153.72 78.3649 153.72C78.9282 153.72 79.4179 153.833 79.8339 154.058C80.2586 154.275 80.5966 154.548 80.8479 154.877V153.837H82.3429V161H80.8479V159.934C80.5966 160.272 80.2542 160.554 79.8209 160.779C79.3876 161.004 78.8936 161.117 78.3389 161.117C77.7236 161.117 77.1602 160.961 76.6489 160.649C76.1376 160.328 75.7302 159.886 75.4269 159.323C75.1322 158.751 74.9849 158.105 74.9849 157.386ZM80.8479 157.412C80.8479 156.918 80.7439 156.489 80.5359 156.125C80.3366 155.761 80.0722 155.484 79.7429 155.293C79.4136 155.102 79.0582 155.007 78.6769 155.007C78.2956 155.007 77.9402 155.102 77.6109 155.293C77.2816 155.475 77.0129 155.748 76.8049 156.112C76.6056 156.467 76.5059 156.892 76.5059 157.386C76.5059 157.88 76.6056 158.313 76.8049 158.686C77.0129 159.059 77.2816 159.345 77.6109 159.544C77.9489 159.735 78.3042 159.83 78.6769 159.83C79.0582 159.83 79.4136 159.735 79.7429 159.544C80.0722 159.353 80.3366 159.076 80.5359 158.712C80.7439 158.339 80.8479 157.906 80.8479 157.412ZM83.7955 157.386C83.7955 156.667 83.9428 156.03 84.2375 155.475C84.5408 154.92 84.9481 154.491 85.4595 154.188C85.9795 153.876 86.5558 153.72 87.1885 153.72C87.6565 153.72 88.1158 153.824 88.5665 154.032C89.0258 154.231 89.3898 154.5 89.6585 154.838V151.38H91.1535V161H89.6585V159.921C89.4158 160.268 89.0778 160.554 88.6445 160.779C88.2198 161.004 87.7301 161.117 87.1755 161.117C86.5515 161.117 85.9795 160.961 85.4595 160.649C84.9481 160.328 84.5408 159.886 84.2375 159.323C83.9428 158.751 83.7955 158.105 83.7955 157.386ZM89.6585 157.412C89.6585 156.918 89.5545 156.489 89.3465 156.125C89.1471 155.761 88.8828 155.484 88.5535 155.293C88.2241 155.102 87.8688 155.007 87.4875 155.007C87.1061 155.007 86.7508 155.102 86.4215 155.293C86.0921 155.475 85.8235 155.748 85.6155 156.112C85.4161 156.467 85.3165 156.892 85.3165 157.386C85.3165 157.88 85.4161 158.313 85.6155 158.686C85.8235 159.059 86.0921 159.345 86.4215 159.544C86.7595 159.735 87.1148 159.83 87.4875 159.83C87.8688 159.83 88.2241 159.735 88.5535 159.544C88.8828 159.353 89.1471 159.076 89.3465 158.712C89.5545 158.339 89.6585 157.906 89.6585 157.412ZM101.17 161L99.09 157.386H97.959V161H96.477V151.965H99.597C100.29 151.965 100.875 152.086 101.352 152.329C101.837 152.572 102.197 152.897 102.431 153.304C102.674 153.711 102.795 154.166 102.795 154.669C102.795 155.258 102.622 155.796 102.275 156.281C101.937 156.758 101.413 157.083 100.702 157.256L102.938 161H101.17ZM97.959 156.203H99.597C100.152 156.203 100.568 156.064 100.845 155.787C101.131 155.51 101.274 155.137 101.274 154.669C101.274 154.201 101.135 153.837 100.858 153.577C100.581 153.308 100.16 153.174 99.597 153.174H97.959V156.203ZM111.256 157.243C111.256 157.512 111.238 157.754 111.204 157.971H105.731C105.774 158.543 105.986 159.002 106.368 159.349C106.749 159.696 107.217 159.869 107.772 159.869C108.569 159.869 109.132 159.535 109.462 158.868H111.061C110.844 159.527 110.45 160.068 109.878 160.493C109.314 160.909 108.612 161.117 107.772 161.117C107.087 161.117 106.472 160.965 105.926 160.662C105.388 160.35 104.964 159.917 104.652 159.362C104.348 158.799 104.197 158.149 104.197 157.412C104.197 156.675 104.344 156.03 104.639 155.475C104.942 154.912 105.362 154.478 105.9 154.175C106.446 153.872 107.07 153.72 107.772 153.72C108.448 153.72 109.05 153.867 109.579 154.162C110.107 154.457 110.519 154.873 110.814 155.41C111.108 155.939 111.256 156.55 111.256 157.243ZM109.709 156.775C109.7 156.229 109.505 155.791 109.124 155.462C108.742 155.133 108.27 154.968 107.707 154.968C107.195 154.968 106.758 155.133 106.394 155.462C106.03 155.783 105.813 156.22 105.744 156.775H109.709ZM115.314 161.117C114.751 161.117 114.244 161.017 113.793 160.818C113.351 160.61 113 160.333 112.74 159.986C112.48 159.631 112.342 159.236 112.324 158.803H113.858C113.884 159.106 114.027 159.362 114.287 159.57C114.556 159.769 114.89 159.869 115.288 159.869C115.704 159.869 116.025 159.791 116.25 159.635C116.484 159.47 116.601 159.262 116.601 159.011C116.601 158.742 116.471 158.543 116.211 158.413C115.96 158.283 115.557 158.14 115.002 157.984C114.465 157.837 114.027 157.694 113.689 157.555C113.351 157.416 113.057 157.204 112.805 156.918C112.563 156.632 112.441 156.255 112.441 155.787C112.441 155.406 112.554 155.059 112.779 154.747C113.005 154.426 113.325 154.175 113.741 153.993C114.166 153.811 114.651 153.72 115.197 153.72C116.012 153.72 116.666 153.928 117.16 154.344C117.663 154.751 117.932 155.31 117.966 156.021H116.484C116.458 155.7 116.328 155.445 116.094 155.254C115.86 155.063 115.544 154.968 115.145 154.968C114.755 154.968 114.456 155.042 114.248 155.189C114.04 155.336 113.936 155.531 113.936 155.774C113.936 155.965 114.006 156.125 114.144 156.255C114.283 156.385 114.452 156.489 114.651 156.567C114.851 156.636 115.145 156.727 115.535 156.84C116.055 156.979 116.48 157.122 116.809 157.269C117.147 157.408 117.438 157.616 117.68 157.893C117.923 158.17 118.049 158.539 118.057 158.998C118.057 159.405 117.945 159.769 117.719 160.09C117.494 160.411 117.173 160.662 116.757 160.844C116.35 161.026 115.869 161.117 115.314 161.117ZM126.146 153.837V161H124.664V160.155C124.43 160.45 124.122 160.684 123.741 160.857C123.368 161.022 122.969 161.104 122.545 161.104C121.981 161.104 121.474 160.987 121.024 160.753C120.582 160.519 120.231 160.172 119.971 159.713C119.719 159.254 119.594 158.699 119.594 158.049V153.837H121.063V157.828C121.063 158.469 121.223 158.963 121.544 159.31C121.864 159.648 122.302 159.817 122.857 159.817C123.411 159.817 123.849 159.648 124.17 159.31C124.499 158.963 124.664 158.469 124.664 157.828V153.837H126.146ZM136.772 153.72C137.335 153.72 137.838 153.837 138.28 154.071C138.731 154.305 139.082 154.652 139.333 155.111C139.593 155.57 139.723 156.125 139.723 156.775V161H138.254V156.996C138.254 156.355 138.094 155.865 137.773 155.527C137.452 155.18 137.015 155.007 136.46 155.007C135.905 155.007 135.463 155.18 135.134 155.527C134.813 155.865 134.653 156.355 134.653 156.996V161H133.184V156.996C133.184 156.355 133.024 155.865 132.703 155.527C132.382 155.18 131.945 155.007 131.39 155.007C130.835 155.007 130.393 155.18 130.064 155.527C129.743 155.865 129.583 156.355 129.583 156.996V161H128.101V153.837H129.583V154.656C129.826 154.361 130.133 154.132 130.506 153.967C130.879 153.802 131.277 153.72 131.702 153.72C132.274 153.72 132.785 153.841 133.236 154.084C133.687 154.327 134.033 154.678 134.276 155.137C134.493 154.704 134.831 154.361 135.29 154.11C135.749 153.85 136.243 153.72 136.772 153.72ZM148.174 157.243C148.174 157.512 148.156 157.754 148.122 157.971H142.649C142.692 158.543 142.904 159.002 143.286 159.349C143.667 159.696 144.135 159.869 144.69 159.869C145.487 159.869 146.05 159.535 146.38 158.868H147.979C147.762 159.527 147.368 160.068 146.796 160.493C146.232 160.909 145.53 161.117 144.69 161.117C144.005 161.117 143.39 160.965 142.844 160.662C142.306 160.35 141.882 159.917 141.57 159.362C141.266 158.799 141.115 158.149 141.115 157.412C141.115 156.675 141.262 156.03 141.557 155.475C141.86 154.912 142.28 154.478 142.818 154.175C143.364 153.872 143.988 153.72 144.69 153.72C145.366 153.72 145.968 153.867 146.497 154.162C147.025 154.457 147.437 154.873 147.732 155.41C148.026 155.939 148.174 156.55 148.174 157.243ZM146.627 156.775C146.618 156.229 146.423 155.791 146.042 155.462C145.66 155.133 145.188 154.968 144.625 154.968C144.113 154.968 143.676 155.133 143.312 155.462C142.948 155.783 142.731 156.22 142.662 156.775H146.627ZM154.442 148.728L150.906 163.275H149.45L152.973 148.728H154.442ZM155.816 156.463C155.816 155.579 156.02 154.786 156.427 154.084C156.843 153.382 157.402 152.836 158.104 152.446C158.815 152.047 159.59 151.848 160.431 151.848C161.393 151.848 162.247 152.086 162.992 152.563C163.746 153.031 164.292 153.698 164.63 154.565H162.849C162.615 154.088 162.29 153.733 161.874 153.499C161.458 153.265 160.977 153.148 160.431 153.148C159.833 153.148 159.3 153.282 158.832 153.551C158.364 153.82 157.996 154.205 157.727 154.708C157.467 155.211 157.337 155.796 157.337 156.463C157.337 157.13 157.467 157.715 157.727 158.218C157.996 158.721 158.364 159.111 158.832 159.388C159.3 159.657 159.833 159.791 160.431 159.791C160.977 159.791 161.458 159.674 161.874 159.44C162.29 159.206 162.615 158.851 162.849 158.374H164.63C164.292 159.241 163.746 159.908 162.992 160.376C162.247 160.844 161.393 161.078 160.431 161.078C159.582 161.078 158.806 160.883 158.104 160.493C157.402 160.094 156.843 159.544 156.427 158.842C156.02 158.14 155.816 157.347 155.816 156.463ZM174.152 151.965L170.759 161H169.043L165.637 151.965H167.223L169.901 159.479L172.592 151.965H174.152Z" fill="#0A66C2"/>
<rect x="31" y="144" width="158" height="24" rx="12" stroke="#0A66C2" stroke-width="2"/>
<path d="M125.928 58.1031V80.0737L101.337 80.0649C100.711 80.0384 100.146 79.6678 99.8635 79.1031L97.2959 73.9855C96.9959 73.3855 96.387 73.0149 95.7253 73.0149H94.1635V58.1031C94.1635 56.6472 95.3547 55.4561 96.8106 55.4561H123.281C124.737 55.4561 125.928 56.6384 125.928 58.1031Z" fill="#B6D1ED"/>
<path d="M117.218 62.5042H102.871C102.695 62.5042 102.527 62.4345 102.403 62.3104C102.279 62.1863 102.209 62.0179 102.209 61.8424C102.209 61.6669 102.279 61.4986 102.403 61.3745C102.527 61.2504 102.695 61.1807 102.871 61.1807H117.218C117.393 61.1807 117.561 61.2504 117.686 61.3745C117.81 61.4986 117.879 61.6669 117.879 61.8424C117.879 62.0179 117.81 62.1863 117.686 62.3104C117.561 62.4345 117.393 62.5042 117.218 62.5042ZM120.577 67.6527H99.5106C99.3351 67.6527 99.1667 67.583 99.0426 67.4589C98.9185 67.3348 98.8488 67.1665 98.8488 66.991C98.8488 66.8154 98.9185 66.6471 99.0426 66.523C99.1667 66.3989 99.3351 66.3292 99.5106 66.3292H120.577C120.752 66.3292 120.921 66.3989 121.045 66.523C121.169 66.6471 121.239 66.8154 121.239 66.991C121.239 67.1665 121.169 67.3348 121.045 67.4589C120.921 67.583 120.752 67.6527 120.577 67.6527ZM120.577 72.8004H99.5106C99.3351 72.8004 99.1667 72.7306 99.0426 72.6065C98.9185 72.4824 98.8488 72.3141 98.8488 72.1386C98.8488 71.9631 98.9185 71.7948 99.0426 71.6707C99.1667 71.5466 99.3351 71.4768 99.5106 71.4768H120.577C120.752 71.4768 120.921 71.5466 121.045 71.6707C121.169 71.7948 121.239 71.9631 121.239 72.1386C121.239 72.3141 121.169 72.4824 121.045 72.6065C120.921 72.7306 120.752 72.8004 120.577 72.8004Z" fill="#0A66C2"/>
<path d="M106.004 93.1554L110.311 86.9569C110.381 86.8564 110.474 86.7743 110.583 86.7176C110.691 86.661 110.812 86.6313 110.934 86.6313C111.057 86.6313 111.177 86.661 111.286 86.7176C111.394 86.7743 111.487 86.8564 111.557 86.9569L115.857 93.1554C115.936 93.2692 115.982 93.4025 115.991 93.5408C115.999 93.6791 115.97 93.8171 115.906 93.9398C115.841 94.0625 115.745 94.1653 115.626 94.237C115.508 94.3087 115.372 94.3466 115.233 94.3466H113.336V100.303C113.336 100.505 113.256 100.698 113.114 100.84C112.972 100.982 112.779 101.062 112.577 101.062H109.283C109.081 101.062 108.888 100.982 108.746 100.84C108.604 100.698 108.524 100.505 108.524 100.303V94.3474H106.627C106.488 94.3474 106.352 94.3095 106.234 94.2376C106.115 94.1658 106.018 94.0629 105.954 93.9401C105.89 93.8172 105.861 93.6791 105.869 93.5408C105.878 93.4025 105.925 93.2692 106.004 93.1554Z" fill="#B6D1ED"/>
<path d="M136.119 79.4118H134.531V67.7118C134.53 66.8346 134.181 65.9935 133.561 65.3732C132.941 64.7529 132.1 64.4039 131.222 64.403H126.59V58.103C126.589 57.2257 126.24 56.3847 125.62 55.7644C124.999 55.144 124.158 54.7951 123.281 54.7942H96.8106C95.9333 54.7951 95.0922 55.144 94.4719 55.7644C93.8516 56.3847 93.5027 57.2257 93.5017 58.103V64.403H88.8694C87.9921 64.4039 87.1511 64.7529 86.5307 65.3732C85.9104 65.9935 85.5615 66.8346 85.5606 67.7118V72.353H83.8841C83.5335 72.3532 83.1871 72.4292 82.8687 72.5759C82.5503 72.7225 82.2674 72.9363 82.0394 73.2026C81.8114 73.469 81.6437 73.7814 81.5478 74.1187C81.452 74.4559 81.4302 74.8098 81.4841 75.1562L86.1076 104.406C86.226 105.187 86.6208 105.899 87.22 106.412C87.8192 106.926 88.583 107.208 89.3723 107.206H130.816C131.584 107.206 132.327 106.938 132.919 106.45C133.511 105.961 133.914 105.282 134.06 104.529C136.742 91.0307 137.95 84.9963 138.497 82.3051C138.801 80.8139 137.654 79.4118 136.119 79.4118ZM131.222 65.7265C132.317 65.7265 133.208 66.6177 133.208 67.7118V79.4118L126.59 79.4145V65.7265H131.222ZM96.8106 56.1177H123.281C124.375 56.1177 125.266 57.0089 125.266 58.103V79.4118L101.365 79.403C101.174 79.3939 100.989 79.3337 100.829 79.2289C100.669 79.124 100.54 78.9781 100.456 78.8065L97.8879 73.6889C97.6883 73.2864 97.3798 72.9479 96.9976 72.7118C96.6153 72.4757 96.1746 72.3514 95.7253 72.353H94.8253V58.103C94.8253 57.0089 95.7164 56.1177 96.8106 56.1177ZM86.8841 67.7118C86.8841 66.6177 87.7753 65.7265 88.8694 65.7265H93.5017V72.353H86.8841V67.7118ZM137.2 82.0413C136.653 84.7333 135.444 90.7686 132.76 104.276C132.673 104.728 132.432 105.135 132.077 105.428C131.722 105.722 131.277 105.882 130.816 105.882H89.3723C88.8985 105.883 88.4401 105.714 88.0807 105.405C87.7213 105.096 87.4848 104.668 87.4144 104.2L82.7909 74.9498C82.7668 74.7922 82.7771 74.6314 82.821 74.4782C82.8649 74.325 82.9414 74.1831 83.0452 74.0622C83.149 73.9413 83.2777 73.8443 83.4225 73.7777C83.5673 73.7111 83.7247 73.6766 83.8841 73.6765H95.7253C96.1426 73.6765 96.5176 73.9086 96.7047 74.2818L99.2723 79.3995C99.7029 80.2607 100.621 80.7354 101.434 80.7354H136.119C136.814 80.7354 137.337 81.368 137.2 82.0413Z" fill="#0A66C2"/>
<path d="M112.101 86.58C111.97 86.3916 111.796 86.2376 111.593 86.1311C111.39 86.0246 111.164 85.9688 110.935 85.9685H110.934C110.705 85.9686 110.479 86.0242 110.276 86.1305C110.073 86.2368 109.899 86.3907 109.768 86.5791L105.461 92.7776C104.806 93.7182 105.481 95.0082 106.627 95.0082H107.862V100.304C107.862 101.088 108.499 101.725 109.283 101.725H112.578C113.361 101.725 113.999 101.087 113.999 100.304L113.997 95.0082H115.233C116.378 95.0082 117.053 93.72 116.401 92.7785L112.101 86.58ZM115.319 93.6326C115.292 93.6847 115.248 93.6847 115.233 93.6847H113.336C113.161 93.6847 112.992 93.7544 112.868 93.8785C112.744 94.0026 112.674 94.1709 112.674 94.3464V100.303C112.674 100.329 112.664 100.354 112.646 100.372C112.628 100.39 112.603 100.4 112.577 100.4H109.283C109.257 100.4 109.232 100.39 109.214 100.372C109.196 100.354 109.186 100.329 109.186 100.303V94.3464C109.186 94.1709 109.116 94.0026 108.992 93.8785C108.868 93.7544 108.699 93.6847 108.524 93.6847H106.627C106.613 93.6847 106.568 93.6847 106.541 93.6326C106.514 93.5806 106.538 93.5462 106.547 93.5329L110.854 87.3344C110.873 87.3062 110.901 87.292 110.933 87.292C110.966 87.292 110.995 87.3062 111.014 87.3344L115.313 93.5329C115.321 93.5444 115.347 93.5806 115.319 93.6326Z" fill="#0A66C2"/>
</svg>
