<svg width="220" height="220" viewBox="0 0 220 220" fill="none" xmlns="http://www.w3.org/2000/svg">
<rect width="220" height="220" rx="15" fill="white"/>
<path d="M57.422 159.154H53.639L52.989 161H51.442L54.679 151.952H56.395L59.632 161H58.072L57.422 159.154ZM57.006 157.945L55.537 153.746L54.055 157.945H57.006ZM62.5215 154.89C62.7728 154.561 63.1151 154.283 63.5485 154.058C63.9818 153.833 64.4715 153.72 65.0175 153.72C65.6415 153.72 66.2091 153.876 66.7205 154.188C67.2405 154.491 67.6478 154.92 67.9425 155.475C68.2371 156.03 68.3845 156.667 68.3845 157.386C68.3845 158.105 68.2371 158.751 67.9425 159.323C67.6478 159.886 67.2405 160.328 66.7205 160.649C66.2091 160.961 65.6415 161.117 65.0175 161.117C64.4715 161.117 63.9861 161.009 63.5615 160.792C63.1368 160.567 62.7901 160.289 62.5215 159.96V164.406H61.0395V153.837H62.5215V154.89ZM66.8765 157.386C66.8765 156.892 66.7725 156.467 66.5645 156.112C66.3651 155.748 66.0965 155.475 65.7585 155.293C65.4291 155.102 65.0738 155.007 64.6925 155.007C64.3198 155.007 63.9645 155.102 63.6265 155.293C63.2971 155.484 63.0285 155.761 62.8205 156.125C62.6211 156.489 62.5215 156.918 62.5215 157.412C62.5215 157.906 62.6211 158.339 62.8205 158.712C63.0285 159.076 63.2971 159.353 63.6265 159.544C63.9645 159.735 64.3198 159.83 64.6925 159.83C65.0738 159.83 65.4291 159.735 65.7585 159.544C66.0965 159.345 66.3651 159.059 66.5645 158.686C66.7725 158.313 66.8765 157.88 66.8765 157.386ZM71.332 154.89C71.5833 154.561 71.9257 154.283 72.359 154.058C72.7923 153.833 73.282 153.72 73.828 153.72C74.452 153.72 75.0197 153.876 75.531 154.188C76.051 154.491 76.4583 154.92 76.753 155.475C77.0477 156.03 77.195 156.667 77.195 157.386C77.195 158.105 77.0477 158.751 76.753 159.323C76.4583 159.886 76.051 160.328 75.531 160.649C75.0197 160.961 74.452 161.117 73.828 161.117C73.282 161.117 72.7967 161.009 72.372 160.792C71.9473 160.567 71.6007 160.289 71.332 159.96V164.406H69.85V153.837H71.332V154.89ZM75.687 157.386C75.687 156.892 75.583 156.467 75.375 156.112C75.1757 155.748 74.907 155.475 74.569 155.293C74.2397 155.102 73.8843 155.007 73.503 155.007C73.1303 155.007 72.775 155.102 72.437 155.293C72.1077 155.484 71.839 155.761 71.631 156.125C71.4317 156.489 71.332 156.918 71.332 157.412C71.332 157.906 71.4317 158.339 71.631 158.712C71.839 159.076 72.1077 159.353 72.437 159.544C72.775 159.735 73.1303 159.83 73.503 159.83C73.8843 159.83 74.2397 159.735 74.569 159.544C74.907 159.345 75.1757 159.059 75.375 158.686C75.583 158.313 75.687 157.88 75.687 157.386ZM80.1425 151.38V161H78.6605V151.38H80.1425ZM88.5363 153.837L84.1423 164.367H82.6083L84.0643 160.883L81.2433 153.837H82.8943L84.9093 159.297L87.0023 153.837H88.5363ZM98.3486 151.965V153.174H94.5136V155.839H97.5036V157.048H94.5136V161H93.0316V151.965H98.3486ZM102.829 161.117C102.153 161.117 101.542 160.965 100.996 160.662C100.45 160.35 100.021 159.917 99.7091 159.362C99.3971 158.799 99.2411 158.149 99.2411 157.412C99.2411 156.684 99.4014 156.038 99.7221 155.475C100.043 154.912 100.48 154.478 101.035 154.175C101.59 153.872 102.209 153.72 102.894 153.72C103.579 153.72 104.198 153.872 104.753 154.175C105.308 154.478 105.745 154.912 106.066 155.475C106.387 156.038 106.547 156.684 106.547 157.412C106.547 158.14 106.382 158.786 106.053 159.349C105.724 159.912 105.273 160.35 104.701 160.662C104.138 160.965 103.514 161.117 102.829 161.117ZM102.829 159.83C103.21 159.83 103.566 159.739 103.895 159.557C104.233 159.375 104.506 159.102 104.714 158.738C104.922 158.374 105.026 157.932 105.026 157.412C105.026 156.892 104.926 156.454 104.727 156.099C104.528 155.735 104.263 155.462 103.934 155.28C103.605 155.098 103.249 155.007 102.868 155.007C102.487 155.007 102.131 155.098 101.802 155.28C101.481 155.462 101.226 155.735 101.035 156.099C100.844 156.454 100.749 156.892 100.749 157.412C100.749 158.183 100.944 158.781 101.334 159.206C101.733 159.622 102.231 159.83 102.829 159.83ZM109.494 154.877C109.711 154.513 109.997 154.231 110.352 154.032C110.716 153.824 111.145 153.72 111.639 153.72V155.254H111.262C110.681 155.254 110.239 155.401 109.936 155.696C109.641 155.991 109.494 156.502 109.494 157.23V161H108.012V153.837H109.494V154.877ZM122.215 151.965V153.174H119.81V161H118.328V153.174H115.91V151.965H122.215ZM127.421 153.72C127.967 153.72 128.453 153.837 128.877 154.071C129.311 154.305 129.649 154.652 129.891 155.111C130.143 155.57 130.268 156.125 130.268 156.775V161H128.799V156.996C128.799 156.355 128.639 155.865 128.318 155.527C127.998 155.18 127.56 155.007 127.005 155.007C126.451 155.007 126.009 155.18 125.679 155.527C125.359 155.865 125.198 156.355 125.198 156.996V161H123.716V151.38H125.198V154.669C125.45 154.366 125.766 154.132 126.147 153.967C126.537 153.802 126.962 153.72 127.421 153.72ZM132.913 152.888C132.644 152.888 132.419 152.797 132.237 152.615C132.055 152.433 131.964 152.208 131.964 151.939C131.964 151.67 132.055 151.445 132.237 151.263C132.419 151.081 132.644 150.99 132.913 150.99C133.173 150.99 133.394 151.081 133.576 151.263C133.758 151.445 133.849 151.67 133.849 151.939C133.849 152.208 133.758 152.433 133.576 152.615C133.394 152.797 133.173 152.888 132.913 152.888ZM133.641 153.837V161H132.159V153.837H133.641ZM138.186 161.117C137.623 161.117 137.116 161.017 136.665 160.818C136.223 160.61 135.872 160.333 135.612 159.986C135.352 159.631 135.214 159.236 135.196 158.803H136.73C136.756 159.106 136.899 159.362 137.159 159.57C137.428 159.769 137.762 159.869 138.16 159.869C138.576 159.869 138.897 159.791 139.122 159.635C139.356 159.47 139.473 159.262 139.473 159.011C139.473 158.742 139.343 158.543 139.083 158.413C138.832 158.283 138.429 158.14 137.874 157.984C137.337 157.837 136.899 157.694 136.561 157.555C136.223 157.416 135.929 157.204 135.677 156.918C135.435 156.632 135.313 156.255 135.313 155.787C135.313 155.406 135.426 155.059 135.651 154.747C135.877 154.426 136.197 154.175 136.613 153.993C137.038 153.811 137.523 153.72 138.069 153.72C138.884 153.72 139.538 153.928 140.032 154.344C140.535 154.751 140.804 155.31 140.838 156.021H139.356C139.33 155.7 139.2 155.445 138.966 155.254C138.732 155.063 138.416 154.968 138.017 154.968C137.627 154.968 137.328 155.042 137.12 155.189C136.912 155.336 136.808 155.531 136.808 155.774C136.808 155.965 136.878 156.125 137.016 156.255C137.155 156.385 137.324 156.489 137.523 156.567C137.723 156.636 138.017 156.727 138.407 156.84C138.927 156.979 139.352 157.122 139.681 157.269C140.019 157.408 140.31 157.616 140.552 157.893C140.795 158.17 140.921 158.539 140.929 158.998C140.929 159.405 140.817 159.769 140.591 160.09C140.366 160.411 140.045 160.662 139.629 160.844C139.222 161.026 138.741 161.117 138.186 161.117ZM150.835 151.965V158.478C150.835 159.284 150.588 159.921 150.094 160.389C149.608 160.857 148.967 161.091 148.17 161.091C147.372 161.091 146.727 160.857 146.233 160.389C145.747 159.921 145.505 159.284 145.505 158.478H147C147.008 158.877 147.108 159.193 147.299 159.427C147.498 159.661 147.788 159.778 148.17 159.778C148.551 159.778 148.841 159.661 149.041 159.427C149.24 159.184 149.34 158.868 149.34 158.478V151.965H150.835ZM156.353 161.117C155.677 161.117 155.066 160.965 154.52 160.662C153.974 160.35 153.545 159.917 153.233 159.362C152.921 158.799 152.765 158.149 152.765 157.412C152.765 156.684 152.925 156.038 153.246 155.475C153.566 154.912 154.004 154.478 154.559 154.175C155.113 153.872 155.733 153.72 156.418 153.72C157.102 153.72 157.722 153.872 158.277 154.175C158.831 154.478 159.269 154.912 159.59 155.475C159.91 156.038 160.071 156.684 160.071 157.412C160.071 158.14 159.906 158.786 159.577 159.349C159.247 159.912 158.797 160.35 158.225 160.662C157.661 160.965 157.037 161.117 156.353 161.117ZM156.353 159.83C156.734 159.83 157.089 159.739 157.419 159.557C157.757 159.375 158.03 159.102 158.238 158.738C158.446 158.374 158.55 157.932 158.55 157.412C158.55 156.892 158.45 156.454 158.251 156.099C158.051 155.735 157.787 155.462 157.458 155.28C157.128 155.098 156.773 155.007 156.392 155.007C156.01 155.007 155.655 155.098 155.326 155.28C155.005 155.462 154.749 155.735 154.559 156.099C154.368 156.454 154.273 156.892 154.273 157.412C154.273 158.183 154.468 158.781 154.858 159.206C155.256 159.622 155.755 159.83 156.353 159.83ZM163.018 154.903C163.269 154.556 163.611 154.275 164.045 154.058C164.487 153.833 164.976 153.72 165.514 153.72C166.146 153.72 166.718 153.872 167.23 154.175C167.741 154.478 168.144 154.912 168.439 155.475C168.733 156.03 168.881 156.667 168.881 157.386C168.881 158.105 168.733 158.751 168.439 159.323C168.144 159.886 167.737 160.328 167.217 160.649C166.705 160.961 166.138 161.117 165.514 161.117C164.959 161.117 164.465 161.009 164.032 160.792C163.607 160.575 163.269 160.298 163.018 159.96V161H161.536V151.38H163.018V154.903ZM167.373 157.386C167.373 156.892 167.269 156.467 167.061 156.112C166.861 155.748 166.593 155.475 166.255 155.293C165.925 155.102 165.57 155.007 165.189 155.007C164.816 155.007 164.461 155.102 164.123 155.293C163.793 155.484 163.525 155.761 163.317 156.125C163.117 156.489 163.018 156.918 163.018 157.412C163.018 157.906 163.117 158.339 163.317 158.712C163.525 159.076 163.793 159.353 164.123 159.544C164.461 159.735 164.816 159.83 165.189 159.83C165.57 159.83 165.925 159.735 166.255 159.544C166.593 159.345 166.861 159.059 167.061 158.686C167.269 158.313 167.373 157.88 167.373 157.386Z" fill="#0A66C2"/>
<rect x="31" y="144" width="158" height="24" rx="12" stroke="#0A66C2" stroke-width="2"/>
<path d="M95.8274 106.007V108.193H123.857V106.007C123.857 104.804 122.878 103.825 121.675 103.825H98.0099C96.8065 103.825 95.8274 104.804 95.8274 106.007ZM122.196 74.4926C119.187 74.4926 116.738 76.941 116.738 79.9504C116.738 82.9598 119.187 85.4082 122.196 85.4082C125.206 85.4082 127.651 82.9598 127.651 79.9504C127.651 76.941 125.204 74.4926 122.196 74.4926ZM126.796 93.1219L125.685 91.1956C123.559 91.8593 121.315 91.905 119.146 91.3223C118.541 91.1595 117.949 90.9492 117.376 90.6933H92.8145C91.6276 90.6933 90.662 89.7291 90.662 88.5441V62.916H86.3667C85.1652 62.916 84.1876 63.8921 84.1876 65.0918V93.8125C84.1876 95.0141 85.1652 95.9916 86.3667 95.9916H126.901L126.753 95.7365C126.268 94.8971 126.318 93.8932 126.796 93.1219Z" fill="#B6D1ED"/>
<path d="M120.911 68.2419C122.344 68.0851 123.808 68.1944 125.242 68.5784C128.279 69.3918 130.818 71.3396 132.391 74.0633C133.964 76.7867 134.382 79.9592 133.568 82.9965C132.988 85.167 131.826 87.0875 130.189 88.5948L131.3 90.5197C131.551 90.5122 131.802 90.5416 132.044 90.607C132.7 90.7832 133.248 91.203 133.587 91.7888L135.288 94.7348C135.425 94.4465 135.496 94.1315 135.497 93.8124V65.0918C135.497 63.892 134.519 62.9159 133.318 62.9159H120.911V68.2418L120.911 68.2419ZM134.302 96.7735L131.965 92.7262C131.921 92.6503 131.862 92.5838 131.793 92.5306C131.723 92.4774 131.643 92.4386 131.558 92.4164C131.423 92.3789 131.279 92.386 131.148 92.4365C131.139 92.4398 131.131 92.4438 131.122 92.4468C131.098 92.4569 131.075 92.4679 131.053 92.4808L128.617 93.8864C128.598 93.8977 128.579 93.9101 128.56 93.9234C128.543 93.9383 128.525 93.952 128.508 93.9658C128.393 94.0684 128.318 94.2071 128.294 94.3587C128.27 94.5103 128.299 94.6655 128.375 94.7984L128.376 94.799L129.33 96.4521C129.338 96.465 129.346 96.4777 129.353 96.4911L133.096 102.974C133.279 103.291 133.688 103.401 134.007 103.218L136.44 101.814C136.753 101.633 136.865 101.214 136.684 100.899L134.34 96.8391C134.326 96.8177 134.314 96.7958 134.302 96.7734L134.302 96.7735ZM101.654 59.3018H105.245V60.5541H101.654V59.3018ZM108.607 64.3509L107.149 66.4386C107.063 66.5622 106.948 66.6632 106.814 66.7329C106.68 66.8027 106.532 66.8391 106.381 66.839H100.515C100.364 66.839 100.215 66.8026 100.081 66.7329C99.9478 66.6632 99.8329 66.5622 99.7465 66.4386L98.2922 64.3556V69.3504H108.607V64.3509Z" fill="#B6D1ED"/>
<path d="M105.892 64.9656L107.664 62.4278H99.2311L101.003 64.9656H105.892ZM114.443 58.6874H117.712L114.167 55.1423V58.4083C114.167 58.5622 114.291 58.6874 114.443 58.6874Z" fill="#B6D1ED"/>
<path d="M122.196 72.6191C118.154 72.6191 114.865 75.9079 114.865 79.9505C114.865 83.9931 118.154 87.282 122.196 87.282C126.239 87.282 129.524 83.9931 129.524 79.9505C129.524 75.9079 126.237 72.6191 122.196 72.6191ZM122.196 85.4083C119.187 85.4083 116.738 82.9599 116.738 79.9505C116.738 76.9411 119.187 74.4927 122.196 74.4927C125.206 74.4927 127.651 76.9411 127.651 79.9505C127.651 82.9599 125.204 85.4083 122.196 85.4083Z" fill="#0A66C2"/>
<path d="M120.906 59.5306C120.903 59.5078 120.9 59.4852 120.896 59.4627C120.895 59.4551 120.894 59.4474 120.892 59.4398C120.887 59.4128 120.88 59.3861 120.872 59.3597C120.871 59.3569 120.871 59.3541 120.87 59.3513C120.862 59.3246 120.852 59.2983 120.842 59.2725C120.841 59.2701 120.84 59.2676 120.839 59.2653C120.829 59.2408 120.817 59.2167 120.805 59.1932L120.8 59.1823C120.788 59.1609 120.776 59.14 120.762 59.1196C120.759 59.1142 120.756 59.1087 120.753 59.1034C120.739 59.0843 120.726 59.0656 120.711 59.0475C120.707 59.0417 120.703 59.0355 120.698 59.0297C120.678 59.0061 120.658 58.9834 120.636 58.9617L113.893 52.2185C113.871 52.1969 113.849 52.1764 113.825 52.157C113.819 52.1523 113.813 52.1483 113.807 52.1437C113.789 52.1292 113.771 52.1154 113.751 52.1023C113.746 52.0988 113.74 52.0958 113.735 52.0925C113.715 52.0791 113.694 52.0666 113.673 52.055L113.662 52.0497C113.638 52.0373 113.614 52.026 113.59 52.0157C113.587 52.0146 113.585 52.0141 113.582 52.013C113.556 52.0024 113.53 51.993 113.504 51.9848C113.501 51.9839 113.498 51.9835 113.495 51.9825C113.469 51.9747 113.442 51.9679 113.415 51.9624C113.407 51.9608 113.4 51.9601 113.392 51.9589C113.37 51.955 113.347 51.951 113.324 51.9488C113.293 51.9457 113.262 51.9441 113.231 51.9441H92.8245C91.6321 51.9441 90.6621 52.9128 90.6621 54.1033V61.0426H86.3668C84.1321 61.0426 82.3141 62.8592 82.3141 65.0919V93.8126C82.3141 96.0473 84.1321 97.8653 86.3668 97.8653H102.511V101.951H98.0098C95.7734 101.951 93.9539 103.771 93.9539 106.007V109.13C93.9539 109.253 93.9781 109.374 94.0252 109.488C94.0722 109.602 94.1412 109.705 94.2282 109.792C94.3152 109.879 94.4185 109.948 94.5322 109.995C94.6458 110.042 94.7676 110.066 94.8906 110.066H124.794C125.042 110.066 125.281 109.968 125.456 109.792C125.632 109.616 125.731 109.378 125.731 109.13V106.007C125.731 103.771 123.911 101.951 121.675 101.951H117.174V97.8653H127.983L131.474 103.912C131.944 104.724 132.8 105.179 133.679 105.179C134.109 105.179 134.544 105.07 134.942 104.842L137.378 103.436C138.588 102.737 139.006 101.18 138.308 99.9646L136.321 96.5241C136.988 95.7864 137.371 94.821 137.371 93.8125V65.0918C137.371 62.8591 135.552 61.0425 133.318 61.0425H120.911V59.6241C120.911 59.5927 120.909 59.5615 120.906 59.5306ZM114.167 55.1423L117.712 58.6873H114.443C114.291 58.6873 114.167 58.5621 114.167 58.4083V55.1423ZM92.5355 54.1032C92.5355 53.9483 92.6678 53.8175 92.8245 53.8175H112.294V58.4083C112.294 59.5951 113.258 60.5609 114.443 60.5609H119.037V68.6048C118.083 68.8725 117.167 69.2588 116.309 69.7546C113.585 71.3269 111.638 73.8662 110.824 76.904C110.009 79.9411 110.426 83.1139 111.999 85.8375C112.645 86.9594 113.473 87.9669 114.447 88.8197H92.8146C92.6607 88.8197 92.5355 88.6961 92.5355 88.5441V54.1032ZM121.675 103.825C122.878 103.825 123.857 104.804 123.857 106.007V108.193H95.8274V106.007C95.8274 104.804 96.8064 103.825 98.0099 103.825H121.675ZM104.385 101.951V97.8653H115.3V101.951H104.385ZM86.3669 95.9916C85.1654 95.9916 84.1878 95.0141 84.1878 93.8125V65.0918C84.1878 63.8921 85.1654 62.916 86.3669 62.916H90.6621V88.5441C90.6621 89.7291 91.6277 90.6933 92.8146 90.6933H117.377C117.949 90.9492 118.541 91.1595 119.146 91.3223C121.315 91.905 123.559 91.8593 125.686 91.1956L126.796 93.1219C126.318 93.8933 126.268 94.8971 126.754 95.7365L126.901 95.9916H86.3669ZM126.921 89.5878C126.809 89.394 126.632 89.2465 126.421 89.1721C126.21 89.0977 125.979 89.1013 125.771 89.1822C123.798 89.9474 121.675 90.0619 119.632 89.5128C117.078 88.8287 114.943 87.1909 113.621 84.901C112.299 82.6108 111.949 79.9432 112.634 77.389C113.318 74.8342 114.956 72.6992 117.246 71.3771C119.536 70.0553 122.203 69.704 124.758 70.3882C127.311 71.0721 129.446 72.71 130.769 75.0001C132.091 77.2902 132.443 79.958 131.759 82.5123C131.212 84.5571 130.052 86.3375 128.403 87.6607C128.229 87.8008 128.11 87.9987 128.069 88.2187C128.028 88.4386 128.066 88.666 128.178 88.8598L129.528 91.1975L128.268 91.9247L126.921 89.5878ZM136.684 100.899C136.865 101.214 136.753 101.633 136.441 101.814L134.008 103.218C133.688 103.401 133.279 103.291 133.096 102.974L129.353 96.4912C129.346 96.4778 129.338 96.4651 129.33 96.4521L128.376 94.7991L128.375 94.7985C128.299 94.6656 128.27 94.5104 128.294 94.3588C128.318 94.2072 128.393 94.0685 128.508 93.9659C128.526 93.9521 128.544 93.9384 128.56 93.9235C128.578 93.9103 128.598 93.8979 128.617 93.8864L131.053 92.4809C131.075 92.468 131.098 92.457 131.122 92.4469C131.131 92.4439 131.139 92.44 131.148 92.4366C131.279 92.3861 131.423 92.379 131.558 92.4164C131.643 92.4387 131.723 92.4775 131.793 92.5307C131.863 92.5839 131.921 92.6503 131.965 92.7263L134.302 96.7736C134.314 96.7959 134.327 96.8176 134.34 96.8393L136.685 100.899L136.684 100.899ZM133.318 62.916C134.519 62.916 135.497 63.8921 135.497 65.0918V93.8125C135.497 94.135 135.423 94.4493 135.288 94.7349L133.587 91.7889C133.248 91.2031 132.7 90.7833 132.044 90.6071C131.802 90.5417 131.551 90.5123 131.301 90.5198L130.189 88.5948C131.826 87.0876 132.988 85.1671 133.568 82.9966C134.382 79.9593 133.964 76.7867 132.391 74.0634C130.818 71.3398 128.279 69.3919 125.242 68.5785C123.808 68.1945 122.344 68.0851 120.911 68.2419V62.9161H133.318L133.318 62.916Z" fill="#0A66C2"/>
<path d="M106.936 83.7839H97.5881C97.3397 83.7839 97.1014 83.8826 96.9257 84.0583C96.75 84.234 96.6513 84.4723 96.6513 84.7207C96.6513 84.9692 96.75 85.2075 96.9257 85.3831C97.1014 85.5588 97.3397 85.6575 97.5881 85.6575H106.936C107.184 85.6575 107.423 85.5588 107.598 85.3831C107.774 85.2075 107.873 84.9692 107.873 84.7207C107.873 84.4723 107.774 84.234 107.598 84.0583C107.423 83.8826 107.184 83.7839 106.936 83.7839ZM98.2492 71.224H108.647C109.658 71.224 110.48 70.403 110.48 69.3937V62.3846C110.48 61.3753 109.657 60.5542 108.647 60.5542H107.119V58.8434C107.119 58.063 106.484 57.4282 105.703 57.4282H101.196C100.415 57.4282 99.7806 58.063 99.7806 58.8434V60.5542H98.2492C97.7722 60.5542 97.3386 60.7391 97.0125 61.039C97.0033 61.0467 96.9948 61.0551 96.9859 61.0631C96.9728 61.0757 96.9593 61.0876 96.9466 61.1005C96.9366 61.1108 96.9272 61.1216 96.9177 61.1324C96.6094 61.4602 96.4188 61.9 96.4188 62.3844V69.3935C96.4188 70.4028 97.24 71.2239 98.2492 71.2239V71.224ZM101.654 59.3019H105.245V60.5543H101.654V59.3019ZM107.664 62.4278L105.893 64.9657H101.003L99.2313 62.4278H107.664ZM98.2923 64.3556L99.7466 66.4387C99.8329 66.5623 99.9478 66.6633 100.082 66.733C100.215 66.8027 100.364 66.8391 100.515 66.8391H106.381C106.532 66.8391 106.68 66.8027 106.814 66.733C106.948 66.6632 107.063 66.5623 107.149 66.4387L108.607 64.351V69.3505H98.2923V64.3556ZM97.3555 75.5557H109.092C109.34 75.5557 109.578 75.457 109.754 75.2813C109.93 75.1057 110.028 74.8674 110.028 74.6189C110.028 74.3705 109.93 74.1322 109.754 73.9565C109.578 73.7808 109.34 73.6821 109.092 73.6821H97.3555C97.107 73.6821 96.8688 73.7808 96.6931 73.9565C96.5174 74.1322 96.4187 74.3705 96.4187 74.6189C96.4187 74.8674 96.5174 75.1057 96.6931 75.2813C96.8688 75.457 97.107 75.5557 97.3555 75.5557ZM97.3555 80.6083H106.703C106.952 80.6083 107.19 80.5096 107.366 80.3339C107.541 80.1582 107.64 79.9199 107.64 79.6715C107.64 79.423 107.541 79.1847 107.366 79.009C107.19 78.8334 106.952 78.7347 106.703 78.7347H97.3555C97.107 78.7347 96.8688 78.8334 96.6931 79.009C96.5174 79.1847 96.4187 79.423 96.4187 79.6715C96.4187 79.9199 96.5174 80.1582 96.6931 80.3339C96.8688 80.5096 97.107 80.6083 97.3555 80.6083Z" fill="#0A66C2"/>
</svg>
