<svg width="220" height="220" viewBox="0 0 220 220" fill="none" xmlns="http://www.w3.org/2000/svg">
<rect width="220" height="220" rx="15" fill="white"/>
<path d="M73.024 159.352V162.616H76.864V164.104H73.024V167.512H77.344V169H71.2V157.864H77.344V159.352H73.024ZM90.2626 160.04C90.956 160.04 91.5746 160.184 92.1186 160.472C92.6733 160.76 93.1053 161.187 93.4146 161.752C93.7346 162.317 93.8946 163 93.8946 163.8V169H92.0866V164.072C92.0866 163.283 91.8893 162.68 91.4946 162.264C91.1 161.837 90.5613 161.624 89.8786 161.624C89.196 161.624 88.652 161.837 88.2466 162.264C87.852 162.68 87.6546 163.283 87.6546 164.072V169H85.8466V164.072C85.8466 163.283 85.6493 162.68 85.2546 162.264C84.86 161.837 84.3213 161.624 83.6386 161.624C82.956 161.624 82.412 161.837 82.0066 162.264C81.612 162.68 81.4146 163.283 81.4146 164.072V169H79.5906V160.184H81.4146V161.192C81.7133 160.829 82.092 160.547 82.5506 160.344C83.0093 160.141 83.5 160.04 84.0226 160.04C84.7266 160.04 85.356 160.189 85.9106 160.488C86.4653 160.787 86.892 161.219 87.1906 161.784C87.4573 161.251 87.8733 160.829 88.4386 160.52C89.004 160.2 89.612 160.04 90.2626 160.04ZM98.0396 161.48C98.349 161.075 98.7703 160.733 99.3036 160.456C99.837 160.179 100.44 160.04 101.112 160.04C101.88 160.04 102.578 160.232 103.208 160.616C103.848 160.989 104.349 161.517 104.712 162.2C105.074 162.883 105.256 163.667 105.256 164.552C105.256 165.437 105.074 166.232 104.712 166.936C104.349 167.629 103.848 168.173 103.208 168.568C102.578 168.952 101.88 169.144 101.112 169.144C100.44 169.144 99.8423 169.011 99.3196 168.744C98.797 168.467 98.3703 168.125 98.0396 167.72V173.192H96.2156V160.184H98.0396V161.48ZM103.4 164.552C103.4 163.944 103.272 163.421 103.016 162.984C102.77 162.536 102.44 162.2 102.024 161.976C101.618 161.741 101.181 161.624 100.712 161.624C100.253 161.624 99.8156 161.741 99.3996 161.976C98.9943 162.211 98.6636 162.552 98.4076 163C98.1623 163.448 98.0396 163.976 98.0396 164.584C98.0396 165.192 98.1623 165.725 98.4076 166.184C98.6636 166.632 98.9943 166.973 99.3996 167.208C99.8156 167.443 100.253 167.56 100.712 167.56C101.181 167.56 101.618 167.443 102.024 167.208C102.44 166.963 102.77 166.611 103.016 166.152C103.272 165.693 103.4 165.16 103.4 164.552ZM108.883 157.16V169H107.059V157.16H108.883ZM115.102 169.144C114.27 169.144 113.518 168.957 112.846 168.584C112.174 168.2 111.646 167.667 111.262 166.984C110.878 166.291 110.686 165.491 110.686 164.584C110.686 163.688 110.883 162.893 111.278 162.2C111.673 161.507 112.211 160.973 112.894 160.6C113.577 160.227 114.339 160.04 115.182 160.04C116.025 160.04 116.787 160.227 117.47 160.6C118.153 160.973 118.691 161.507 119.086 162.2C119.481 162.893 119.678 163.688 119.678 164.584C119.678 165.48 119.475 166.275 119.07 166.968C118.665 167.661 118.11 168.2 117.406 168.584C116.713 168.957 115.945 169.144 115.102 169.144ZM115.102 167.56C115.571 167.56 116.009 167.448 116.414 167.224C116.83 167 117.166 166.664 117.422 166.216C117.678 165.768 117.806 165.224 117.806 164.584C117.806 163.944 117.683 163.405 117.438 162.968C117.193 162.52 116.867 162.184 116.462 161.96C116.057 161.736 115.619 161.624 115.15 161.624C114.681 161.624 114.243 161.736 113.838 161.96C113.443 162.184 113.129 162.52 112.894 162.968C112.659 163.405 112.542 163.944 112.542 164.584C112.542 165.533 112.782 166.269 113.262 166.792C113.753 167.304 114.366 167.56 115.102 167.56ZM129.417 160.184L124.009 173.144H122.121L123.913 168.856L120.441 160.184H122.473L124.953 166.904L127.529 160.184H129.417ZM138.874 164.376C138.874 164.707 138.852 165.005 138.81 165.272H132.074C132.127 165.976 132.388 166.541 132.858 166.968C133.327 167.395 133.903 167.608 134.586 167.608C135.567 167.608 136.26 167.197 136.666 166.376H138.634C138.367 167.187 137.882 167.853 137.178 168.376C136.484 168.888 135.62 169.144 134.586 169.144C133.743 169.144 132.986 168.957 132.314 168.584C131.652 168.2 131.13 167.667 130.746 166.984C130.372 166.291 130.186 165.491 130.186 164.584C130.186 163.677 130.367 162.883 130.73 162.2C131.103 161.507 131.62 160.973 132.282 160.6C132.954 160.227 133.722 160.04 134.586 160.04C135.418 160.04 136.159 160.221 136.81 160.584C137.46 160.947 137.967 161.459 138.33 162.12C138.692 162.771 138.874 163.523 138.874 164.376ZM136.97 163.8C136.959 163.128 136.719 162.589 136.25 162.184C135.78 161.779 135.199 161.576 134.506 161.576C133.876 161.576 133.338 161.779 132.89 162.184C132.442 162.579 132.175 163.117 132.09 163.8H136.97ZM142.493 161.464C142.759 161.016 143.111 160.669 143.549 160.424C143.997 160.168 144.525 160.04 145.133 160.04V161.928H144.669C143.954 161.928 143.41 162.109 143.037 162.472C142.674 162.835 142.493 163.464 142.493 164.36V169H140.669V160.184H142.493V161.464Z" fill="black"/>
<circle cx="108" cy="91" r="40" fill="#D9D9D9"/>
<path fill-rule="evenodd" clip-rule="evenodd" d="M99.2229 70.6125C98.9119 70.5194 98.5833 70.5002 98.2635 70.5565C97.9437 70.6128 97.6415 70.7432 97.3811 70.9371C97.1206 71.131 96.909 71.3831 96.7633 71.6732C96.6175 71.9634 96.5417 72.2837 96.5417 72.6084V111.833H103.833V104.542C103.833 103.989 104.053 103.459 104.444 103.069C104.834 102.678 105.364 102.458 105.917 102.458H110.083C110.636 102.458 111.166 102.678 111.556 103.069C111.947 103.459 112.167 103.989 112.167 104.542V111.833H119.458V78.2334C119.458 77.7852 119.314 77.3489 119.046 76.9894C118.779 76.6298 118.402 76.3662 117.973 76.2375L99.2229 70.6125ZM103.833 82.6667C103.557 82.6667 103.292 82.7765 103.097 82.9718C102.901 83.1672 102.792 83.4321 102.792 83.7084V85.7917C102.792 86.068 102.901 86.3329 103.097 86.5283C103.292 86.7236 103.557 86.8334 103.833 86.8334H105.917C106.193 86.8334 106.458 86.7236 106.653 86.5283C106.849 86.3329 106.958 86.068 106.958 85.7917V83.7084C106.958 83.4321 106.849 83.1672 106.653 82.9718C106.458 82.7765 106.193 82.6667 105.917 82.6667H103.833ZM102.792 89.9584C102.792 89.6821 102.901 89.4172 103.097 89.2218C103.292 89.0265 103.557 88.9167 103.833 88.9167H105.917C106.193 88.9167 106.458 89.0265 106.653 89.2218C106.849 89.4172 106.958 89.6821 106.958 89.9584V92.0417C106.958 92.318 106.849 92.5829 106.653 92.7783C106.458 92.9736 106.193 93.0834 105.917 93.0834H103.833C103.557 93.0834 103.292 92.9736 103.097 92.7783C102.901 92.5829 102.792 92.318 102.792 92.0417V89.9584ZM103.833 95.1667C103.557 95.1667 103.292 95.2765 103.097 95.4718C102.901 95.6672 102.792 95.9321 102.792 96.2084V98.2917C102.792 98.568 102.901 98.8329 103.097 99.0283C103.292 99.2236 103.557 99.3334 103.833 99.3334H105.917C106.193 99.3334 106.458 99.2236 106.653 99.0283C106.849 98.8329 106.958 98.568 106.958 98.2917V96.2084C106.958 95.9321 106.849 95.6672 106.653 95.4718C106.458 95.2765 106.193 95.1667 105.917 95.1667H103.833ZM109.042 83.7084C109.042 83.4321 109.151 83.1672 109.347 82.9718C109.542 82.7765 109.807 82.6667 110.083 82.6667H112.167C112.443 82.6667 112.708 82.7765 112.903 82.9718C113.099 83.1672 113.208 83.4321 113.208 83.7084V85.7917C113.208 86.068 113.099 86.3329 112.903 86.5283C112.708 86.7236 112.443 86.8334 112.167 86.8334H110.083C109.807 86.8334 109.542 86.7236 109.347 86.5283C109.151 86.3329 109.042 86.068 109.042 85.7917V83.7084ZM110.083 88.9167C109.807 88.9167 109.542 89.0265 109.347 89.2218C109.151 89.4172 109.042 89.6821 109.042 89.9584V92.0417C109.042 92.318 109.151 92.5829 109.347 92.7783C109.542 92.9736 109.807 93.0834 110.083 93.0834H112.167C112.443 93.0834 112.708 92.9736 112.903 92.7783C113.099 92.5829 113.208 92.318 113.208 92.0417V89.9584C113.208 89.6821 113.099 89.4172 112.903 89.2218C112.708 89.0265 112.443 88.9167 112.167 88.9167H110.083ZM109.042 96.2084C109.042 95.9321 109.151 95.6672 109.347 95.4718C109.542 95.2765 109.807 95.1667 110.083 95.1667H112.167C112.443 95.1667 112.708 95.2765 112.903 95.4718C113.099 95.6672 113.208 95.9321 113.208 96.2084V98.2917C113.208 98.568 113.099 98.8329 112.903 99.0283C112.708 99.2236 112.443 99.3334 112.167 99.3334H110.083C109.807 99.3334 109.542 99.2236 109.347 99.0283C109.151 98.8329 109.042 98.568 109.042 98.2917V96.2084Z" fill="#0A66C2"/>
<path d="M94.4584 111.833V76.4167H91.3334C90.7808 76.4167 90.2509 76.6362 89.8602 77.0269C89.4695 77.4176 89.25 77.9475 89.25 78.5001V109.75H88.2084C87.9321 109.75 87.6671 109.86 87.4718 110.055C87.2764 110.251 87.1667 110.515 87.1667 110.792C87.1667 111.068 87.2764 111.333 87.4718 111.528C87.6671 111.724 87.9321 111.833 88.2084 111.833H94.4584ZM127.792 111.833H121.542V84.2938L125.7 86.6688C126.02 86.8513 126.285 87.1152 126.469 87.4335C126.654 87.7519 126.751 88.1134 126.75 88.4813V109.75H127.792C128.068 109.75 128.333 109.86 128.528 110.055C128.724 110.251 128.833 110.515 128.833 110.792C128.833 111.068 128.724 111.333 128.528 111.528C128.333 111.724 128.068 111.833 127.792 111.833ZM110.083 111.833V104.542H105.917V111.833H110.083Z" fill="#0A66C2"/>
<circle cx="137" cy="119" r="15" fill="#FE8C23"/>
<path d="M137 110L139.645 115.359L145.56 116.219L141.28 120.391L142.29 126.281L137 123.5L131.71 126.281L132.72 120.391L128.44 116.219L134.355 115.359L137 110Z" fill="white"/>
</svg>
