<svg width="220" height="220" viewBox="0 0 220 220" fill="none" xmlns="http://www.w3.org/2000/svg">
<rect width="220" height="220" rx="15" fill="white"/>
<path fill-rule="evenodd" clip-rule="evenodd" d="M100.243 68.0021V64.6225H115.643V68.0021H100.243ZM124.199 58.0173L128.629 62.445H124.199V58.0173ZM132.454 69.8376C133.081 68.7514 134.48 68.3762 135.566 69.0037L136.518 69.5535C137.044 69.8574 137.421 70.3506 137.578 70.9375C137.656 71.2262 137.676 71.5274 137.637 71.8238C137.598 72.1203 137.501 72.4062 137.352 72.6651L123.631 96.4291L118.734 93.6008L132.454 69.8376ZM92.5505 79.3251C91.2584 79.3251 90.172 78.576 89.4366 77.5535C88.5987 76.3886 88.2145 74.9028 88.2145 73.4798C88.2145 72.0511 88.5945 70.624 89.7987 69.7451C90.5912 69.1667 91.5832 68.9492 92.5505 68.9492C93.5174 68.9492 94.5089 69.1669 95.3011 69.7452C96.5053 70.6241 96.8852 72.0512 96.8852 73.4798C96.8852 74.9028 96.5011 76.3886 95.6633 77.5535C94.9283 78.5758 93.8422 79.3251 92.5505 79.3251ZM107.475 89.3902V100.256H100.243V96.1307H103.225C103.286 96.1308 103.347 96.1188 103.404 96.0953C103.461 96.0718 103.513 96.0373 103.556 95.9938C103.6 95.9503 103.634 95.8987 103.658 95.8418C103.682 95.7849 103.694 95.724 103.694 95.6624V89.3902H107.475Z" fill="#B6D1ED"/>
<path fill-rule="evenodd" clip-rule="evenodd" d="M136.946 72.4307L123.46 95.7887L119.375 93.4294L132.86 70.0719C133.359 69.2082 134.468 68.9105 135.332 69.4096L136.284 69.9594C136.701 70.1993 137 70.5898 137.125 71.0586C137.25 71.5262 137.187 72.0137 136.946 72.4307ZM119.031 95.3971V98.742L121.928 97.0692L119.031 95.3971ZM128.822 104.177V90.2516L124.615 97.5381C124.533 97.6811 124.414 97.7997 124.271 97.8817L118.562 101.178C118.42 101.26 118.258 101.303 118.094 101.303C117.929 101.303 117.768 101.26 117.625 101.178C117.482 101.096 117.364 100.977 117.282 100.835C117.199 100.692 117.156 100.53 117.156 100.366V93.773C117.156 93.6087 117.2 93.4475 117.282 93.3042L128.822 73.3171V63.8515H123.731C123.214 63.8515 122.793 63.4318 122.793 62.9139V57.8235H93.4869V67.6006C96.4749 67.9717 98.2916 70.1529 98.2916 73.4796C98.2916 76.3861 96.9305 78.896 94.9726 80.0525C96.2873 80.1795 97.6071 80.4055 98.9274 80.7326C100.859 81.2118 102.311 82.0567 103.191 83.1686H118.47C118.988 83.1686 119.407 83.5882 119.407 84.1061C119.407 84.6239 118.988 85.0437 118.47 85.0437H104.071C104.132 85.3404 104.162 85.6475 104.162 85.9647V87.9838H107.944C108.067 87.9838 108.189 88.008 108.303 88.0551C108.417 88.1022 108.52 88.1713 108.607 88.2583C108.694 88.3454 108.763 88.4487 108.81 88.5625C108.857 88.6763 108.882 88.7982 108.882 88.9213V100.725C108.882 100.848 108.857 100.97 108.81 101.083C108.763 101.197 108.694 101.3 108.607 101.387C108.52 101.474 108.416 101.543 108.303 101.591C108.189 101.638 108.067 101.662 107.944 101.662H99.7745C99.526 101.662 99.2877 101.563 99.112 101.387C98.9363 101.211 98.8375 100.973 98.8374 100.725V96.5994H93.4867V104.177H128.822ZM100.712 96.5994H103.225C103.348 96.5995 103.47 96.5753 103.584 96.5282C103.697 96.4812 103.801 96.4122 103.888 96.3251C103.975 96.2381 104.044 96.1348 104.091 96.0211C104.138 95.9074 104.162 95.7855 104.162 95.6624V89.8589H107.007V99.7872H100.712V96.5994ZM82.8119 85.9647C82.8119 83.9538 84.8889 82.9986 86.6311 82.5503C90.4877 81.5586 94.4735 81.5598 98.4764 82.5519C99.8993 82.9049 102.287 83.8177 102.287 85.9647V94.7248H99.3119V88.1938C99.3119 87.9451 99.2131 87.7067 99.0373 87.5309C98.8614 87.355 98.623 87.2562 98.3743 87.2562C98.2512 87.2562 98.1293 87.2804 98.0155 87.3275C97.9017 87.3746 97.7984 87.4437 97.7113 87.5308C97.6242 87.6178 97.5552 87.7212 97.508 87.835C97.4609 87.9487 97.4367 88.0707 97.4367 88.1938V94.7248H87.6624V88.1938C87.6624 87.9451 87.5637 87.7067 87.3878 87.5308C87.212 87.355 86.9735 87.2562 86.7249 87.2562C86.4762 87.2562 86.2378 87.355 86.0619 87.5308C85.8861 87.7067 85.7873 87.9451 85.7873 88.1938V94.7248H82.8119V85.9647ZM88.6833 73.4796C88.6833 69.9462 91.1055 69.4178 92.5505 69.4178C93.9937 69.4178 96.4165 69.9462 96.4165 73.4796C96.4165 76.4446 94.682 78.8563 92.5505 78.8563C90.4178 78.8563 88.6833 76.4446 88.6833 73.4796ZM124.668 59.1488L127.497 61.9764H124.668V59.1488ZM138.935 70.5737C138.68 69.6207 138.072 68.826 137.221 68.3352L136.269 67.7854C134.51 66.7706 132.252 67.3756 131.236 69.1344L130.697 70.0686V62.9139C130.697 62.791 130.673 62.6693 130.626 62.5557C130.579 62.4422 130.51 62.339 130.423 62.2521L124.394 56.2225C124.218 56.0467 123.979 55.9481 123.73 55.9484H92.5493C92.4261 55.9483 92.3042 55.9725 92.1904 56.0196C92.0767 56.0667 91.9733 56.1357 91.8862 56.2228C91.7991 56.3099 91.7301 56.4132 91.6829 56.527C91.6358 56.6408 91.6116 56.7627 91.6117 56.8859V67.6006C88.6247 67.9717 86.808 70.1541 86.808 73.4796C86.808 76.3788 88.1625 78.8844 90.1126 80.0432C88.7804 80.1698 87.4603 80.4011 86.1644 80.7348C82.7931 81.6007 80.9367 83.4581 80.9367 85.9648V95.6625C80.9367 95.7856 80.961 95.9075 81.0081 96.0212C81.0552 96.1349 81.1243 96.2382 81.2113 96.3253C81.2984 96.4123 81.4017 96.4813 81.5155 96.5283C81.6292 96.5754 81.7511 96.5996 81.8742 96.5995H91.6117V105.115C91.6116 105.238 91.6358 105.36 91.683 105.474C91.7301 105.587 91.7991 105.691 91.8862 105.778C91.9733 105.865 92.0767 105.934 92.1905 105.981C92.3042 106.028 92.4262 106.052 92.5493 106.052H129.759C130.277 106.052 130.697 105.633 130.697 105.115V87.0042L138.57 73.3682C139.061 72.5179 139.191 71.525 138.935 70.5737ZM122.91 80.2284C123.427 80.2284 123.847 79.8088 123.847 79.2908C123.847 78.774 123.427 78.3532 122.91 78.3532H99.7746C99.2578 78.3532 98.8376 78.774 98.8376 79.2908C98.8376 79.8087 99.2578 80.2284 99.7746 80.2284H122.91ZM98.8376 74.4768C98.8376 74.9946 99.2578 75.4144 99.7746 75.4144H122.91C123.427 75.4144 123.847 74.9946 123.847 74.4768C123.847 73.9589 123.427 73.5393 122.91 73.5393H99.7746C99.2578 73.5391 98.8376 73.9589 98.8376 74.4768ZM100.712 65.0912H115.174V67.5333H100.712V65.0912ZM99.7746 69.4084C99.2578 69.4084 98.8376 68.9882 98.8376 68.4708V64.1536C98.8376 63.9051 98.9364 63.6668 99.1121 63.4911C99.2878 63.3154 99.5261 63.2166 99.7746 63.2166H116.112C116.235 63.2164 116.357 63.2406 116.471 63.2876C116.585 63.3347 116.688 63.4037 116.775 63.4907C116.862 63.5777 116.931 63.6811 116.978 63.7948C117.025 63.9086 117.05 64.0305 117.05 64.1536V68.4708C117.05 68.5939 117.025 68.7159 116.978 68.8296C116.931 68.9434 116.862 69.0467 116.775 69.1338C116.688 69.2209 116.585 69.2899 116.471 69.3371C116.357 69.3842 116.235 69.4084 116.112 69.4084H99.7746Z" fill="#0A66C2"/>
<path d="M46.293 154.656C46.293 155.115 46.1847 155.549 45.968 155.956C45.7513 156.363 45.4047 156.697 44.928 156.957C44.4513 157.208 43.8403 157.334 43.095 157.334H41.457V161H39.975V151.965H43.095C43.7883 151.965 44.3733 152.086 44.85 152.329C45.3353 152.563 45.695 152.884 45.929 153.291C46.1717 153.698 46.293 154.153 46.293 154.656ZM43.095 156.125C43.6583 156.125 44.0787 155.999 44.356 155.748C44.6333 155.488 44.772 155.124 44.772 154.656C44.772 153.668 44.213 153.174 43.095 153.174H41.457V156.125H43.095ZM50.8134 161.117C50.1374 161.117 49.5264 160.965 48.9804 160.662C48.4344 160.35 48.0054 159.917 47.6934 159.362C47.3814 158.799 47.2254 158.149 47.2254 157.412C47.2254 156.684 47.3858 156.038 47.7064 155.475C48.0271 154.912 48.4648 154.478 49.0194 154.175C49.5741 153.872 50.1938 153.72 50.8784 153.72C51.5631 153.72 52.1828 153.872 52.7374 154.175C53.2921 154.478 53.7298 154.912 54.0504 155.475C54.3711 156.038 54.5314 156.684 54.5314 157.412C54.5314 158.14 54.3668 158.786 54.0374 159.349C53.7081 159.912 53.2574 160.35 52.6854 160.662C52.1221 160.965 51.4981 161.117 50.8134 161.117ZM50.8134 159.83C51.1948 159.83 51.5501 159.739 51.8794 159.557C52.2174 159.375 52.4904 159.102 52.6984 158.738C52.9064 158.374 53.0104 157.932 53.0104 157.412C53.0104 156.892 52.9108 156.454 52.7114 156.099C52.5121 155.735 52.2478 155.462 51.9184 155.28C51.5891 155.098 51.2338 155.007 50.8524 155.007C50.4711 155.007 50.1158 155.098 49.7864 155.28C49.4658 155.462 49.2101 155.735 49.0194 156.099C48.8288 156.454 48.7334 156.892 48.7334 157.412C48.7334 158.183 48.9284 158.781 49.3184 159.206C49.7171 159.622 50.2154 159.83 50.8134 159.83ZM58.5965 161.117C58.0332 161.117 57.5262 161.017 57.0755 160.818C56.6335 160.61 56.2825 160.333 56.0225 159.986C55.7625 159.631 55.6238 159.236 55.6065 158.803H57.1405C57.1665 159.106 57.3095 159.362 57.5695 159.57C57.8382 159.769 58.1718 159.869 58.5705 159.869C58.9865 159.869 59.3072 159.791 59.5325 159.635C59.7665 159.47 59.8835 159.262 59.8835 159.011C59.8835 158.742 59.7535 158.543 59.4935 158.413C59.2422 158.283 58.8392 158.14 58.2845 157.984C57.7472 157.837 57.3095 157.694 56.9715 157.555C56.6335 157.416 56.3388 157.204 56.0875 156.918C55.8448 156.632 55.7235 156.255 55.7235 155.787C55.7235 155.406 55.8362 155.059 56.0615 154.747C56.2868 154.426 56.6075 154.175 57.0235 153.993C57.4482 153.811 57.9335 153.72 58.4795 153.72C59.2942 153.72 59.9485 153.928 60.4425 154.344C60.9452 154.751 61.2138 155.31 61.2485 156.021H59.7665C59.7405 155.7 59.6105 155.445 59.3765 155.254C59.1425 155.063 58.8262 154.968 58.4275 154.968C58.0375 154.968 57.7385 155.042 57.5305 155.189C57.3225 155.336 57.2185 155.531 57.2185 155.774C57.2185 155.965 57.2878 156.125 57.4265 156.255C57.5652 156.385 57.7342 156.489 57.9335 156.567C58.1328 156.636 58.4275 156.727 58.8175 156.84C59.3375 156.979 59.7622 157.122 60.0915 157.269C60.4295 157.408 60.7198 157.616 60.9625 157.893C61.2052 158.17 61.3308 158.539 61.3395 158.998C61.3395 159.405 61.2268 159.769 61.0015 160.09C60.7762 160.411 60.4555 160.662 60.0395 160.844C59.6322 161.026 59.1512 161.117 58.5965 161.117ZM64.6698 155.046V159.011C64.6698 159.28 64.7305 159.475 64.8518 159.596C64.9818 159.709 65.1985 159.765 65.5018 159.765H66.4118V161H65.2418C64.5745 161 64.0632 160.844 63.7078 160.532C63.3525 160.22 63.1748 159.713 63.1748 159.011V155.046H62.3298V153.837H63.1748V152.056H64.6698V153.837H66.4118V155.046H64.6698ZM76.0817 151.965V158.478C76.0817 159.284 75.8347 159.921 75.3407 160.389C74.8554 160.857 74.214 161.091 73.4167 161.091C72.6194 161.091 71.9737 160.857 71.4797 160.389C70.9944 159.921 70.7517 159.284 70.7517 158.478H72.2467C72.2554 158.877 72.355 159.193 72.5457 159.427C72.745 159.661 73.0354 159.778 73.4167 159.778C73.798 159.778 74.0884 159.661 74.2877 159.427C74.487 159.184 74.5867 158.868 74.5867 158.478V151.965H76.0817ZM81.5996 161.117C80.9236 161.117 80.3126 160.965 79.7666 160.662C79.2206 160.35 78.7916 159.917 78.4796 159.362C78.1676 158.799 78.0116 158.149 78.0116 157.412C78.0116 156.684 78.1719 156.038 78.4926 155.475C78.8132 154.912 79.2509 154.478 79.8056 154.175C80.3602 153.872 80.9799 153.72 81.6646 153.72C82.3492 153.72 82.9689 153.872 83.5236 154.175C84.0782 154.478 84.5159 154.912 84.8366 155.475C85.1572 156.038 85.3176 156.684 85.3176 157.412C85.3176 158.14 85.1529 158.786 84.8236 159.349C84.4942 159.912 84.0436 160.35 83.4716 160.662C82.9082 160.965 82.2842 161.117 81.5996 161.117ZM81.5996 159.83C81.9809 159.83 82.3362 159.739 82.6656 159.557C83.0036 159.375 83.2766 159.102 83.4846 158.738C83.6926 158.374 83.7966 157.932 83.7966 157.412C83.7966 156.892 83.6969 156.454 83.4976 156.099C83.2982 155.735 83.0339 155.462 82.7046 155.28C82.3752 155.098 82.0199 155.007 81.6386 155.007C81.2572 155.007 80.9019 155.098 80.5726 155.28C80.2519 155.462 79.9962 155.735 79.8056 156.099C79.6149 156.454 79.5196 156.892 79.5196 157.412C79.5196 158.183 79.7146 158.781 80.1046 159.206C80.5032 159.622 81.0016 159.83 81.5996 159.83ZM88.2646 154.903C88.516 154.556 88.8583 154.275 89.2916 154.058C89.7336 153.833 90.2233 153.72 90.7606 153.72C91.3933 153.72 91.9653 153.872 92.4766 154.175C92.988 154.478 93.391 154.912 93.6856 155.475C93.9803 156.03 94.1276 156.667 94.1276 157.386C94.1276 158.105 93.9803 158.751 93.6856 159.323C93.391 159.886 92.9836 160.328 92.4636 160.649C91.9523 160.961 91.3846 161.117 90.7606 161.117C90.206 161.117 89.712 161.009 89.2786 160.792C88.854 160.575 88.516 160.298 88.2646 159.96V161H86.7826V151.38H88.2646V154.903ZM92.6196 157.386C92.6196 156.892 92.5156 156.467 92.3076 156.112C92.1083 155.748 91.8396 155.475 91.5016 155.293C91.1723 155.102 90.817 155.007 90.4356 155.007C90.063 155.007 89.7076 155.102 89.3696 155.293C89.0403 155.484 88.7716 155.761 88.5636 156.125C88.3643 156.489 88.2646 156.918 88.2646 157.412C88.2646 157.906 88.3643 158.339 88.5636 158.712C88.7716 159.076 89.0403 159.353 89.3696 159.544C89.7076 159.735 90.063 159.83 90.4356 159.83C90.817 159.83 91.1723 159.735 91.5016 159.544C91.8396 159.345 92.1083 159.059 92.3076 158.686C92.5156 158.313 92.6196 157.88 92.6196 157.386ZM103.663 161L101.583 157.386H100.452V161H98.9701V151.965H102.09C102.783 151.965 103.368 152.086 103.845 152.329C104.33 152.572 104.69 152.897 104.924 153.304C105.167 153.711 105.288 154.166 105.288 154.669C105.288 155.258 105.115 155.796 104.768 156.281C104.43 156.758 103.906 157.083 103.195 157.256L105.431 161H103.663ZM100.452 156.203H102.09C102.645 156.203 103.061 156.064 103.338 155.787C103.624 155.51 103.767 155.137 103.767 154.669C103.767 154.201 103.628 153.837 103.351 153.577C103.074 153.308 102.653 153.174 102.09 153.174H100.452V156.203ZM113.749 157.243C113.749 157.512 113.732 157.754 113.697 157.971H108.224C108.267 158.543 108.48 159.002 108.861 159.349C109.242 159.696 109.71 159.869 110.265 159.869C111.062 159.869 111.626 159.535 111.955 158.868H113.554C113.337 159.527 112.943 160.068 112.371 160.493C111.808 160.909 111.106 161.117 110.265 161.117C109.58 161.117 108.965 160.965 108.419 160.662C107.882 160.35 107.457 159.917 107.145 159.362C106.842 158.799 106.69 158.149 106.69 157.412C106.69 156.675 106.837 156.03 107.132 155.475C107.435 154.912 107.856 154.478 108.393 154.175C108.939 153.872 109.563 153.72 110.265 153.72C110.941 153.72 111.543 153.867 112.072 154.162C112.601 154.457 113.012 154.873 113.307 155.41C113.602 155.939 113.749 156.55 113.749 157.243ZM112.202 156.775C112.193 156.229 111.998 155.791 111.617 155.462C111.236 155.133 110.763 154.968 110.2 154.968C109.689 154.968 109.251 155.133 108.887 155.462C108.523 155.783 108.306 156.22 108.237 156.775H112.202ZM114.713 157.386C114.713 156.667 114.861 156.03 115.155 155.475C115.459 154.92 115.866 154.491 116.377 154.188C116.897 153.876 117.474 153.72 118.106 153.72C118.661 153.72 119.151 153.833 119.575 154.058C120.009 154.283 120.342 154.556 120.576 154.877V153.837H122.071V164.406H120.576V159.96C120.342 160.281 120.004 160.554 119.562 160.779C119.12 161.004 118.618 161.117 118.054 161.117C117.439 161.117 116.876 160.961 116.364 160.649C115.862 160.328 115.459 159.886 115.155 159.323C114.861 158.751 114.713 158.105 114.713 157.386ZM120.576 157.412C120.576 156.918 120.472 156.489 120.264 156.125C120.065 155.761 119.801 155.484 119.471 155.293C119.142 155.102 118.787 155.007 118.405 155.007C118.024 155.007 117.669 155.102 117.339 155.293C117.01 155.475 116.741 155.748 116.533 156.112C116.334 156.467 116.234 156.892 116.234 157.386C116.234 157.88 116.334 158.313 116.533 158.686C116.741 159.059 117.01 159.345 117.339 159.544C117.677 159.735 118.033 159.83 118.405 159.83C118.787 159.83 119.142 159.735 119.471 159.544C119.801 159.353 120.065 159.076 120.264 158.712C120.472 158.339 120.576 157.906 120.576 157.412ZM130.505 153.837V161H129.023V160.155C128.789 160.45 128.481 160.684 128.1 160.857C127.727 161.022 127.329 161.104 126.904 161.104C126.341 161.104 125.834 160.987 125.383 160.753C124.941 160.519 124.59 160.172 124.33 159.713C124.079 159.254 123.953 158.699 123.953 158.049V153.837H125.422V157.828C125.422 158.469 125.582 158.963 125.903 159.31C126.224 159.648 126.661 159.817 127.216 159.817C127.771 159.817 128.208 159.648 128.529 159.31C128.858 158.963 129.023 158.469 129.023 157.828V153.837H130.505ZM133.214 152.888C132.946 152.888 132.72 152.797 132.538 152.615C132.356 152.433 132.265 152.208 132.265 151.939C132.265 151.67 132.356 151.445 132.538 151.263C132.72 151.081 132.946 150.99 133.214 150.99C133.474 150.99 133.695 151.081 133.877 151.263C134.059 151.445 134.15 151.67 134.15 151.939C134.15 152.208 134.059 152.433 133.877 152.615C133.695 152.797 133.474 152.888 133.214 152.888ZM133.942 153.837V161H132.46V153.837H133.942ZM137.37 154.877C137.587 154.513 137.873 154.231 138.228 154.032C138.592 153.824 139.021 153.72 139.515 153.72V155.254H139.138C138.557 155.254 138.115 155.401 137.812 155.696C137.517 155.991 137.37 156.502 137.37 157.23V161H135.888V153.837H137.37V154.877ZM149.548 153.72C150.112 153.72 150.614 153.837 151.056 154.071C151.507 154.305 151.858 154.652 152.109 155.111C152.369 155.57 152.499 156.125 152.499 156.775V161H151.03V156.996C151.03 156.355 150.87 155.865 150.549 155.527C150.229 155.18 149.791 155.007 149.236 155.007C148.682 155.007 148.24 155.18 147.91 155.527C147.59 155.865 147.429 156.355 147.429 156.996V161H145.96V156.996C145.96 156.355 145.8 155.865 145.479 155.527C145.159 155.18 144.721 155.007 144.166 155.007C143.612 155.007 143.17 155.18 142.84 155.527C142.52 155.865 142.359 156.355 142.359 156.996V161H140.877V153.837H142.359V154.656C142.602 154.361 142.91 154.132 143.282 153.967C143.655 153.802 144.054 153.72 144.478 153.72C145.05 153.72 145.562 153.841 146.012 154.084C146.463 154.327 146.81 154.678 147.052 155.137C147.269 154.704 147.607 154.361 148.066 154.11C148.526 153.85 149.02 153.72 149.548 153.72ZM160.95 157.243C160.95 157.512 160.933 157.754 160.898 157.971H155.425C155.468 158.543 155.681 159.002 156.062 159.349C156.443 159.696 156.911 159.869 157.466 159.869C158.263 159.869 158.827 159.535 159.156 158.868H160.755C160.538 159.527 160.144 160.068 159.572 160.493C159.009 160.909 158.307 161.117 157.466 161.117C156.781 161.117 156.166 160.965 155.62 160.662C155.083 160.35 154.658 159.917 154.346 159.362C154.043 158.799 153.891 158.149 153.891 157.412C153.891 156.675 154.038 156.03 154.333 155.475C154.636 154.912 155.057 154.478 155.594 154.175C156.14 153.872 156.764 153.72 157.466 153.72C158.142 153.72 158.744 153.867 159.273 154.162C159.802 154.457 160.213 154.873 160.508 155.41C160.803 155.939 160.95 156.55 160.95 157.243ZM159.403 156.775C159.394 156.229 159.199 155.791 158.818 155.462C158.437 155.133 157.964 154.968 157.401 154.968C156.89 154.968 156.452 155.133 156.088 155.462C155.724 155.783 155.507 156.22 155.438 156.775H159.403ZM166.023 153.72C166.586 153.72 167.089 153.837 167.531 154.071C167.981 154.305 168.332 154.652 168.584 155.111C168.835 155.57 168.961 156.125 168.961 156.775V161H167.492V156.996C167.492 156.355 167.331 155.865 167.011 155.527C166.69 155.18 166.252 155.007 165.698 155.007C165.143 155.007 164.701 155.18 164.372 155.527C164.051 155.865 163.891 156.355 163.891 156.996V161H162.409V153.837H163.891V154.656C164.133 154.361 164.441 154.132 164.814 153.967C165.195 153.802 165.598 153.72 166.023 153.72ZM172.58 155.046V159.011C172.58 159.28 172.641 159.475 172.762 159.596C172.892 159.709 173.109 159.765 173.412 159.765H174.322V161H173.152C172.485 161 171.973 160.844 171.618 160.532C171.263 160.22 171.085 159.713 171.085 159.011V155.046H170.24V153.837H171.085V152.056H172.58V153.837H174.322V155.046H172.58ZM178.288 161.117C177.725 161.117 177.218 161.017 176.767 160.818C176.325 160.61 175.974 160.333 175.714 159.986C175.454 159.631 175.315 159.236 175.298 158.803H176.832C176.858 159.106 177.001 159.362 177.261 159.57C177.53 159.769 177.863 159.869 178.262 159.869C178.678 159.869 178.999 159.791 179.224 159.635C179.458 159.47 179.575 159.262 179.575 159.011C179.575 158.742 179.445 158.543 179.185 158.413C178.934 158.283 178.531 158.14 177.976 157.984C177.439 157.837 177.001 157.694 176.663 157.555C176.325 157.416 176.03 157.204 175.779 156.918C175.536 156.632 175.415 156.255 175.415 155.787C175.415 155.406 175.528 155.059 175.753 154.747C175.978 154.426 176.299 154.175 176.715 153.993C177.14 153.811 177.625 153.72 178.171 153.72C178.986 153.72 179.64 153.928 180.134 154.344C180.637 154.751 180.905 155.31 180.94 156.021H179.458C179.432 155.7 179.302 155.445 179.068 155.254C178.834 155.063 178.518 154.968 178.119 154.968C177.729 154.968 177.43 155.042 177.222 155.189C177.014 155.336 176.91 155.531 176.91 155.774C176.91 155.965 176.979 156.125 177.118 156.255C177.257 156.385 177.426 156.489 177.625 156.567C177.824 156.636 178.119 156.727 178.509 156.84C179.029 156.979 179.454 157.122 179.783 157.269C180.121 157.408 180.411 157.616 180.654 157.893C180.897 158.17 181.022 158.539 181.031 158.998C181.031 159.405 180.918 159.769 180.693 160.09C180.468 160.411 180.147 160.662 179.731 160.844C179.324 161.026 178.843 161.117 178.288 161.117Z" fill="#0A66C2"/>
<rect x="31" y="144" width="158" height="24" rx="12" stroke="#0A66C2" stroke-width="2"/>
</svg>
