<svg width="220" height="220" viewBox="0 0 220 220" fill="none" xmlns="http://www.w3.org/2000/svg">
<rect width="220" height="220" rx="15" fill="white"/>
<g clip-path="url(#clip0_394_4)">
<path d="M139 80V86C138.998 86.5299 138.787 87.0377 138.412 87.4125C138.038 87.7872 137.53 87.9984 137 88H115C114.47 87.9984 113.962 87.7872 113.588 87.4125C113.213 87.0377 113.002 86.5299 113 86V80H139Z" fill="#B6D1ED"/>
<path d="M136 80V86C135.998 86.5299 135.787 87.0377 135.412 87.4125C135.038 87.7872 134.53 87.9984 134 88H115C114.47 87.9984 113.962 87.7872 113.588 87.4125C113.213 87.0377 113.002 86.5299 113 86V80H136ZM107 80V86C106.998 86.5299 106.787 87.0377 106.412 87.4125C106.038 87.7872 105.53 87.9984 105 88H83C82.4701 87.9984 81.9623 87.7872 81.5875 87.4125C81.2128 87.0377 81.0016 86.5299 81 86V80H107Z" fill="#E8EDFC"/>
<path d="M107 54V80H81V54C81.0016 53.4701 81.2128 52.9623 81.5875 52.5875C81.9623 52.2128 82.4701 52.0016 83 52H105C105.53 52.0016 106.038 52.2128 106.412 52.5875C106.787 52.9623 106.998 53.4701 107 54Z" fill="#A4C2F7"/>
<path d="M102 73.2599C99.777 75.1542 96.9176 76.1336 94 75.9999C91.0824 76.1336 88.223 75.1542 86 73.2599C86.065 71.6854 86.4966 70.1477 87.2604 68.7693C88.0243 67.3909 89.0993 66.2097 90.4 65.3199C90.8412 65.8455 91.3921 66.2682 92.014 66.5581C92.6359 66.8481 93.3138 66.9984 94 66.9984C94.6862 66.9984 95.3641 66.8481 95.986 66.5581C96.6079 66.2682 97.1588 65.8455 97.6 65.3199C98.9007 66.2097 99.9757 67.3909 100.74 68.7693C101.503 70.1477 101.935 71.6854 102 73.2599Z" fill="#E8EDFC"/>
<path d="M139 54V80H113V54C113.002 53.4701 113.213 52.9623 113.588 52.5875C113.962 52.2128 114.47 52.0016 115 52H137C137.53 52.0016 138.038 52.2128 138.412 52.5875C138.787 52.9623 138.998 53.4701 139 54Z" fill="#7FACFA"/>
<path d="M136 54V80H113V54C113.002 53.4701 113.213 52.9623 113.588 52.5875C113.962 52.2128 114.47 52.0016 115 52H134C134.53 52.0016 135.038 52.2128 135.412 52.5875C135.787 52.9623 135.998 53.4701 136 54Z" fill="#A4C2F7"/>
<path d="M134 73.2599C131.777 75.1542 128.918 76.1336 126 75.9999C123.082 76.1336 120.223 75.1542 118 73.2599C118.065 71.6854 118.497 70.1477 119.26 68.7693C120.024 67.3909 121.099 66.2097 122.4 65.3199C122.841 65.8455 123.392 66.2682 124.014 66.5581C124.636 66.8481 125.314 66.9984 126 66.9984C126.686 66.9984 127.364 66.8481 127.986 66.5581C128.608 66.2682 129.159 65.8455 129.6 65.3199C130.901 66.2097 131.976 67.3909 132.74 68.7693C133.503 70.1477 133.935 71.6854 134 73.2599Z" fill="#E8EDFC"/>
<path d="M94 110C98.9706 110 103 105.971 103 101C103 96.0294 98.9706 92 94 92C89.0294 92 85 96.0294 85 101C85 105.971 89.0294 110 94 110Z" fill="#E8EDFC"/>
<path d="M135 101C134.999 102.716 134.507 104.395 133.583 105.841C132.66 107.286 131.342 108.438 129.785 109.159C128.229 109.881 126.498 110.143 124.798 109.913C123.098 109.684 121.498 108.974 120.188 107.866C118.878 106.758 117.912 105.299 117.404 103.66C116.896 102.022 116.866 100.272 117.32 98.6171C117.773 96.9624 118.689 95.4716 119.961 94.3205C121.234 93.1694 122.808 92.4059 124.5 92.12C125.791 91.9034 127.113 91.9706 128.375 92.317C129.638 92.6634 130.809 93.2807 131.809 94.1259C132.808 94.9711 133.611 96.0239 134.162 97.211C134.713 98.3981 134.999 99.6911 135 101Z" fill="#B6D1ED"/>
<path d="M124.5 109.88C128.642 109.88 132 105.904 132 101C132 96.0957 128.642 92.12 124.5 92.12C120.358 92.12 117 96.0957 117 101C117 105.904 120.358 109.88 124.5 109.88Z" fill="#E8EDFC"/>
<path d="M94 67C96.7614 67 99 64.5376 99 61.5C99 58.4624 96.7614 56 94 56C91.2386 56 89 58.4624 89 61.5C89 64.5376 91.2386 67 94 67Z" fill="#E8EDFC"/>
<path d="M126 67C128.761 67 131 64.5376 131 61.5C131 58.4624 128.761 56 126 56C123.239 56 121 58.4624 121 61.5C121 64.5376 123.239 67 126 67Z" fill="#E8EDFC"/>
<path d="M83 88H86C85.4701 87.9984 84.9623 87.7872 84.5875 87.4125C84.2128 87.0377 84.0016 86.5299 84 86V54C84.0016 53.4701 84.2128 52.9623 84.5875 52.5875C84.9623 52.2128 85.4701 52.0016 86 52H83C82.4701 52.0016 81.9623 52.2128 81.5875 52.5875C81.2128 52.9623 81.0016 53.4701 81 54V86C81.0016 86.5299 81.2128 87.0377 81.5875 87.4125C81.9623 87.7872 82.4701 87.9984 83 88ZM94 110C94.5029 109.997 95.0046 109.952 95.5 109.865C93.4033 109.513 91.4991 108.429 90.1258 106.806C88.7525 105.183 87.9989 103.126 87.9989 101C87.9989 98.8739 88.7525 96.8167 90.1258 95.1937C91.4991 93.5706 93.4033 92.4869 95.5 92.135C94.269 91.9195 93.0065 91.9627 91.7931 92.2619C90.5797 92.5611 89.4419 93.1098 88.4522 93.8729C87.4625 94.636 86.6426 95.5969 86.0447 96.6944C85.4468 97.7918 85.084 99.0018 84.9794 100.247C84.8749 101.493 85.0308 102.746 85.4374 103.928C85.8439 105.11 86.4921 106.194 87.3407 107.111C88.1893 108.029 89.2197 108.759 90.3662 109.257C91.5127 109.754 92.7503 110.007 94 110Z" fill="white"/>
<path d="M80 54H82V62H80V54Z" fill="white"/>
<path d="M81.02 59C81.2852 59 81.5396 58.8946 81.7271 58.7071C81.9147 58.5196 82.02 58.2652 82.02 58C82.02 57.7348 81.9147 57.4804 81.7271 57.2929C81.5396 57.1054 81.2852 57 81.02 57H81.01C80.8787 57.0007 80.7488 57.0272 80.6277 57.078C80.5067 57.1289 80.3968 57.2031 80.3044 57.2964C80.1178 57.4849 80.0137 57.7398 80.015 58.005C80.0164 58.2702 80.123 58.524 80.3115 58.7106C80.4999 58.8972 80.7548 59.0013 81.02 59Z" fill="#0A66C2"/>
<path d="M83 89H105C105.796 89 106.559 88.6839 107.121 88.1213C107.684 87.5587 108 86.7957 108 86V54C108 53.2044 107.684 52.4413 107.121 51.8787C106.559 51.3161 105.796 51 105 51H83C82.2044 51 81.4413 51.3161 80.8787 51.8787C80.3161 52.4413 80 53.2044 80 54C80 54.2652 80.1054 54.5196 80.2929 54.7071C80.4804 54.8946 80.7348 55 81 55C81.2652 55 81.5196 54.8946 81.7071 54.7071C81.8946 54.5196 82 54.2652 82 54C82 53.7348 82.1054 53.4804 82.2929 53.2929C82.4804 53.1054 82.7348 53 83 53H105C105.265 53 105.52 53.1054 105.707 53.2929C105.895 53.4804 106 53.7348 106 54V79H82V62C82 61.7348 81.8946 61.4804 81.7071 61.2929C81.5196 61.1054 81.2652 61 81 61C80.7348 61 80.4804 61.1054 80.2929 61.2929C80.1054 61.4804 80 61.7348 80 62V86C80 86.7957 80.3161 87.5587 80.8787 88.1213C81.4413 88.6839 82.2044 89 83 89ZM82 81H106V86C106 86.2652 105.895 86.5196 105.707 86.7071C105.52 86.8946 105.265 87 105 87H83C82.7348 87 82.4804 86.8946 82.2929 86.7071C82.1054 86.5196 82 86.2652 82 86V81Z" fill="#0A66C2"/>
<path d="M85 85H92C92.2652 85 92.5196 84.8946 92.7071 84.7071C92.8946 84.5196 93 84.2652 93 84C93 83.7348 92.8946 83.4804 92.7071 83.2929C92.5196 83.1054 92.2652 83 92 83H85C84.7348 83 84.4804 83.1054 84.2929 83.2929C84.1054 83.4804 84 83.7348 84 84C84 84.2652 84.1054 84.5196 84.2929 84.7071C84.4804 84.8946 84.7348 85 85 85ZM96 85H103C103.265 85 103.52 84.8946 103.707 84.7071C103.895 84.5196 104 84.2652 104 84C104 83.7348 103.895 83.4804 103.707 83.2929C103.52 83.1054 103.265 83 103 83H96C95.7348 83 95.4804 83.1054 95.2929 83.2929C95.1054 83.4804 95 83.7348 95 84C95 84.2652 95.1054 84.5196 95.2929 84.7071C95.4804 84.8946 95.7348 85 96 85ZM85 73.2C85 73.227 85.01 73.25 85.01 73.275C85.0124 73.3425 85.0218 73.4095 85.038 73.475C85.049 73.535 85.066 73.595 85.089 73.653C85.115 73.709 85.146 73.763 85.182 73.813C85.219 73.87 85.262 73.923 85.31 73.972C85.328 73.99 85.337 74.014 85.357 74.031C87.7653 76.0667 90.8491 77.126 94 77C97.15 77.125 100.234 76.064 102.641 74.028C102.661 74.011 102.67 73.987 102.688 73.969C102.736 73.92 102.778 73.867 102.816 73.81C102.852 73.7597 102.883 73.7061 102.909 73.65C102.932 73.5925 102.949 73.5328 102.96 73.472C102.976 73.4065 102.986 73.3395 102.988 73.272C102.988 73.247 103 73.224 102.998 73.197C102.92 71.646 102.523 70.1276 101.834 68.7362C101.144 67.3448 100.175 66.1102 98.988 65.109C99.6542 64.0234 100.005 62.7737 100 61.5C100.062 59.8436 99.4653 58.2301 98.341 57.0121C97.2168 55.7941 95.656 55.0707 94 55C92.344 55.0707 90.7832 55.7941 89.659 57.0121C88.5347 58.2301 87.9382 59.8436 88 61.5C87.9957 62.773 88.3462 64.022 89.012 65.107C87.8238 66.1086 86.8545 67.3439 86.1643 68.7362C85.4741 70.1285 85.0778 71.648 85 73.2ZM94 57C95.1253 57.0714 96.1768 57.5842 96.9259 58.4269C97.675 59.2697 98.0611 60.3741 98 61.5C98.0611 62.6259 97.675 63.7303 96.9259 64.5731C96.1768 65.4158 95.1253 65.9286 94 66C92.8747 65.9286 91.8232 65.4158 91.0741 64.5731C90.325 63.7303 89.9389 62.6259 90 61.5C89.9389 60.3741 90.325 59.2697 91.0741 58.4269C91.8232 57.5842 92.8747 57.0714 94 57ZM90.32 66.623C91.0912 67.2809 92.0227 67.7232 93.02 67.905C93.02 67.938 93.001 67.966 93.001 68V69C93.001 69.2652 93.1064 69.5196 93.2939 69.7071C93.4814 69.8946 93.7358 70 94.001 70C94.2662 70 94.5206 69.8946 94.7081 69.7071C94.8956 69.5196 95.001 69.2652 95.001 69V68C95.001 67.966 94.985 67.938 94.982 67.905C95.9793 67.7232 96.9108 67.2809 97.682 66.623C99.5412 68.1768 100.713 70.4009 100.943 72.813C98.9585 74.3371 96.4997 75.1116 94 75C91.501 75.1111 89.0429 74.3366 87.059 72.813C87.289 70.4009 88.4608 68.1768 90.32 66.623Z" fill="#0A66C2"/>
<path d="M94 74C94.2652 74 94.5196 73.8946 94.7071 73.7071C94.8946 73.5196 95 73.2652 95 73V72C95 71.7348 94.8946 71.4804 94.7071 71.2929C94.5196 71.1054 94.2652 71 94 71C93.7348 71 93.4804 71.1054 93.2929 71.2929C93.1054 71.4804 93 71.7348 93 72V73C93 73.2652 93.1054 73.5196 93.2929 73.7071C93.4804 73.8946 93.7348 74 94 74ZM137 51H115C114.204 51 113.441 51.3161 112.879 51.8787C112.316 52.4413 112 53.2044 112 54V86C112 86.7957 112.316 87.5587 112.879 88.1213C113.441 88.6839 114.204 89 115 89H137C137.796 89 138.559 88.6839 139.121 88.1213C139.684 87.5587 140 86.7957 140 86V54C140 53.2044 139.684 52.4413 139.121 51.8787C138.559 51.3161 137.796 51 137 51ZM138 86C138 86.2652 137.895 86.5196 137.707 86.7071C137.52 86.8946 137.265 87 137 87H115C114.735 87 114.48 86.8946 114.293 86.7071C114.105 86.5196 114 86.2652 114 86V81H138V86ZM138 79H114V54C114 53.7348 114.105 53.4804 114.293 53.2929C114.48 53.1054 114.735 53 115 53H137C137.265 53 137.52 53.1054 137.707 53.2929C137.895 53.4804 138 53.7348 138 54V79Z" fill="#0A66C2"/>
<path d="M117 85H124C124.265 85 124.52 84.8946 124.707 84.7071C124.895 84.5196 125 84.2652 125 84C125 83.7348 124.895 83.4804 124.707 83.2929C124.52 83.1054 124.265 83 124 83H117C116.735 83 116.48 83.1054 116.293 83.2929C116.105 83.4804 116 83.7348 116 84C116 84.2652 116.105 84.5196 116.293 84.7071C116.48 84.8946 116.735 85 117 85ZM128 85H135C135.265 85 135.52 84.8946 135.707 84.7071C135.895 84.5196 136 84.2652 136 84C136 83.7348 135.895 83.4804 135.707 83.2929C135.52 83.1054 135.265 83 135 83H128C127.735 83 127.48 83.1054 127.293 83.2929C127.105 83.4804 127 83.7348 127 84C127 84.2652 127.105 84.5196 127.293 84.7071C127.48 84.8946 127.735 85 128 85ZM130.988 65.107C131.654 64.022 132.004 62.773 132 61.5C132.062 59.8436 131.465 58.2301 130.341 57.0121C129.217 55.7941 127.656 55.0707 126 55C124.344 55.0707 122.783 55.7941 121.659 57.0121C120.535 58.2301 119.938 59.8436 120 61.5C119.996 62.773 120.346 64.022 121.012 65.107C119.824 66.1086 118.854 67.3439 118.164 68.7362C117.474 70.1285 117.078 71.648 117 73.2C117 73.227 117.01 73.25 117.01 73.275C117.012 73.3425 117.022 73.4095 117.038 73.475C117.049 73.535 117.066 73.595 117.089 73.653C117.115 73.709 117.146 73.763 117.182 73.813C117.219 73.87 117.262 73.923 117.31 73.972C117.328 73.99 117.337 74.014 117.357 74.031C119.765 76.0667 122.849 77.126 126 77C129.15 77.125 132.234 76.064 134.641 74.028C134.661 74.011 134.67 73.987 134.688 73.969C134.736 73.92 134.778 73.867 134.816 73.81C134.852 73.7597 134.883 73.7061 134.909 73.65C134.932 73.5925 134.949 73.5328 134.96 73.472C134.976 73.4065 134.986 73.3395 134.988 73.272C134.988 73.247 135 73.224 134.998 73.197C134.92 71.6456 134.524 70.1269 133.834 68.7351C133.144 67.3434 132.175 66.1084 130.988 65.107ZM126 57C127.125 57.0714 128.177 57.5842 128.926 58.4269C129.675 59.2697 130.061 60.3741 130 61.5C130.061 62.6259 129.675 63.7303 128.926 64.5731C128.177 65.4158 127.125 65.9286 126 66C124.875 65.9286 123.823 65.4158 123.074 64.5731C122.325 63.7303 121.939 62.6259 122 61.5C121.939 60.3741 122.325 59.2697 123.074 58.4269C123.823 57.5842 124.875 57.0714 126 57ZM126 75C123.501 75.1111 121.043 74.3366 119.059 72.813C119.289 70.4009 120.461 68.1768 122.32 66.623C123.091 67.2809 124.023 67.7232 125.02 67.905C125.02 67.938 125.001 67.966 125.001 68V69C125.001 69.2652 125.106 69.5196 125.294 69.7071C125.481 69.8946 125.736 70 126.001 70C126.266 70 126.521 69.8946 126.708 69.7071C126.896 69.5196 127.001 69.2652 127.001 69V68C127.001 67.966 126.985 67.938 126.982 67.905C127.979 67.7232 128.911 67.2809 129.682 66.623C131.541 68.1768 132.713 70.4009 132.943 72.813C130.959 74.3371 128.5 75.1116 126 75Z" fill="#0A66C2"/>
<path d="M126 71C125.735 71 125.48 71.1054 125.293 71.2929C125.105 71.4804 125 71.7348 125 72V73C125 73.2652 125.105 73.5196 125.293 73.7071C125.48 73.8946 125.735 74 126 74C126.265 74 126.52 73.8946 126.707 73.7071C126.895 73.5196 127 73.2652 127 73V72C127 71.7348 126.895 71.4804 126.707 71.2929C126.52 71.1054 126.265 71 126 71ZM84 101C84 106.523 88.477 111 94 111C99.523 111 104 106.523 104 101C104 95.477 99.523 91 94 91C88.48 91.006 84.006 95.48 84 101ZM102 101C102 102.582 101.531 104.129 100.652 105.445C99.7727 106.76 98.5233 107.786 97.0615 108.391C95.5997 108.997 93.9911 109.155 92.4393 108.846C90.8874 108.538 89.462 107.776 88.3431 106.657C87.2243 105.538 86.4624 104.113 86.1537 102.561C85.845 101.009 86.0035 99.4003 86.609 97.9385C87.2145 96.4767 88.2398 95.2273 89.5554 94.3482C90.871 93.4692 92.4177 93 94 93C96.121 93.0024 98.1544 93.846 99.6542 95.3458C101.154 96.8456 101.998 98.879 102 101Z" fill="#0A66C2"/>
<path d="M91.707 97.293C91.5184 97.1108 91.2658 97.01 91.0036 97.0123C90.7414 97.0146 90.4905 97.1198 90.3051 97.3052C90.1197 97.4906 90.0146 97.7414 90.0123 98.0036C90.01 98.2658 90.1108 98.5184 90.293 98.707L92.586 101L90.293 103.293C90.1974 103.385 90.1213 103.496 90.0689 103.618C90.0164 103.74 89.9889 103.871 89.9877 104.004C89.9866 104.136 90.0119 104.268 90.0621 104.391C90.1124 104.514 90.1867 104.626 90.2806 104.719C90.3745 104.813 90.4861 104.888 90.609 104.938C90.7319 104.988 90.8636 105.013 90.9964 105.012C91.1291 105.011 91.2604 104.984 91.3824 104.931C91.5044 104.879 91.6147 104.803 91.707 104.707L94 102.414L96.293 104.707C96.4816 104.889 96.7342 104.99 96.9964 104.988C97.2586 104.985 97.5094 104.88 97.6948 104.695C97.8802 104.509 97.9854 104.259 97.9876 103.996C97.9899 103.734 97.8891 103.482 97.707 103.293L95.414 101L97.707 98.707C97.8891 98.5184 97.9899 98.2658 97.9876 98.0036C97.9854 97.7414 97.8802 97.4906 97.6948 97.3052C97.5094 97.1198 97.2586 97.0146 96.9964 97.0123C96.7342 97.01 96.4816 97.1108 96.293 97.293L94 99.586L91.707 97.293ZM126 111C131.523 111 136 106.523 136 101C136 95.477 131.523 91 126 91C120.477 91 116 95.477 116 101C116.006 106.52 120.48 110.994 126 111ZM126 93C127.582 93 129.129 93.4692 130.445 94.3482C131.76 95.2273 132.785 96.4767 133.391 97.9385C133.997 99.4003 134.155 101.009 133.846 102.561C133.538 104.113 132.776 105.538 131.657 106.657C130.538 107.776 129.113 108.538 127.561 108.846C126.009 109.155 124.4 108.997 122.938 108.391C121.477 107.786 120.227 106.76 119.348 105.445C118.469 104.129 118 102.582 118 101C118.002 98.879 118.846 96.8456 120.346 95.3458C121.846 93.846 123.879 93.0024 126 93Z" fill="#0A66C2"/>
<path d="M123.293 105.707C123.481 105.895 123.735 106 124 106H124.071C124.214 105.99 124.353 105.948 124.479 105.879C124.605 105.81 124.714 105.715 124.8 105.6L130.8 97.6C130.959 97.3878 131.027 97.1211 130.99 96.8586C130.952 96.596 130.812 96.3591 130.6 96.2C130.388 96.0409 130.121 95.9725 129.859 96.0101C129.596 96.0476 129.359 96.1878 129.2 96.4L123.892 103.478L122.707 102.293C122.518 102.111 122.266 102.01 122.004 102.012C121.741 102.015 121.491 102.12 121.305 102.305C121.12 102.491 121.015 102.741 121.012 103.004C121.01 103.266 121.111 103.518 121.293 103.707L123.293 105.707Z" fill="#0A66C2"/>
</g>
<path d="M46.952 161.091C46.3453 161.091 45.7993 160.987 45.314 160.779C44.8287 160.562 44.4473 160.259 44.17 159.869C43.8927 159.479 43.754 159.024 43.754 158.504H45.34C45.3747 158.894 45.5263 159.215 45.795 159.466C46.0723 159.717 46.458 159.843 46.952 159.843C47.4633 159.843 47.862 159.722 48.148 159.479C48.434 159.228 48.577 158.907 48.577 158.517C48.577 158.214 48.486 157.967 48.304 157.776C48.1307 157.585 47.9097 157.438 47.641 157.334C47.381 157.23 47.017 157.117 46.549 156.996C45.9597 156.84 45.4787 156.684 45.106 156.528C44.742 156.363 44.43 156.112 44.17 155.774C43.91 155.436 43.78 154.985 43.78 154.422C43.78 153.902 43.91 153.447 44.17 153.057C44.43 152.667 44.794 152.368 45.262 152.16C45.73 151.952 46.2717 151.848 46.887 151.848C47.7623 151.848 48.4773 152.069 49.032 152.511C49.5953 152.944 49.9073 153.542 49.968 154.305H48.33C48.304 153.976 48.148 153.694 47.862 153.46C47.576 153.226 47.199 153.109 46.731 153.109C46.3063 153.109 45.9597 153.217 45.691 153.434C45.4223 153.651 45.288 153.963 45.288 154.37C45.288 154.647 45.3703 154.877 45.535 155.059C45.7083 155.232 45.925 155.371 46.185 155.475C46.445 155.579 46.8003 155.692 47.251 155.813C47.849 155.978 48.3343 156.142 48.707 156.307C49.0883 156.472 49.409 156.727 49.669 157.074C49.9377 157.412 50.072 157.867 50.072 158.439C50.072 158.898 49.9463 159.332 49.695 159.739C49.4523 160.146 49.0927 160.476 48.616 160.727C48.148 160.97 47.5933 161.091 46.952 161.091ZM55.5257 153.72C56.0717 153.72 56.557 153.837 56.9817 154.071C57.415 154.305 57.753 154.652 57.9957 155.111C58.247 155.57 58.3727 156.125 58.3727 156.775V161H56.9037V156.996C56.9037 156.355 56.7434 155.865 56.4227 155.527C56.102 155.18 55.6644 155.007 55.1097 155.007C54.555 155.007 54.113 155.18 53.7837 155.527C53.463 155.865 53.3027 156.355 53.3027 156.996V161H51.8207V151.38H53.3027V154.669C53.554 154.366 53.8704 154.132 54.2517 153.967C54.6417 153.802 55.0664 153.72 55.5257 153.72ZM63.3701 161.117C62.6941 161.117 62.0831 160.965 61.5371 160.662C60.9911 160.35 60.5621 159.917 60.2501 159.362C59.9381 158.799 59.7821 158.149 59.7821 157.412C59.7821 156.684 59.9424 156.038 60.2631 155.475C60.5838 154.912 61.0214 154.478 61.5761 154.175C62.1308 153.872 62.7504 153.72 63.4351 153.72C64.1198 153.72 64.7394 153.872 65.2941 154.175C65.8488 154.478 66.2864 154.912 66.6071 155.475C66.9278 156.038 67.0881 156.684 67.0881 157.412C67.0881 158.14 66.9234 158.786 66.5941 159.349C66.2648 159.912 65.8141 160.35 65.2421 160.662C64.6788 160.965 64.0548 161.117 63.3701 161.117ZM63.3701 159.83C63.7514 159.83 64.1068 159.739 64.4361 159.557C64.7741 159.375 65.0471 159.102 65.2551 158.738C65.4631 158.374 65.5671 157.932 65.5671 157.412C65.5671 156.892 65.4674 156.454 65.2681 156.099C65.0688 155.735 64.8044 155.462 64.4751 155.28C64.1458 155.098 63.7904 155.007 63.4091 155.007C63.0278 155.007 62.6724 155.098 62.3431 155.28C62.0224 155.462 61.7668 155.735 61.5761 156.099C61.3854 156.454 61.2901 156.892 61.2901 157.412C61.2901 158.183 61.4851 158.781 61.8751 159.206C62.2738 159.622 62.7721 159.83 63.3701 159.83ZM70.0351 154.877C70.2518 154.513 70.5378 154.231 70.8931 154.032C71.2571 153.824 71.6861 153.72 72.1801 153.72V155.254H71.8031C71.2225 155.254 70.7805 155.401 70.4771 155.696C70.1825 155.991 70.0351 156.502 70.0351 157.23V161H68.5531V153.837H70.0351V154.877ZM75.2714 155.046V159.011C75.2714 159.28 75.332 159.475 75.4534 159.596C75.5834 159.709 75.8 159.765 76.1034 159.765H77.0134V161H75.8434C75.176 161 74.6647 160.844 74.3094 160.532C73.954 160.22 73.7764 159.713 73.7764 159.011V155.046H72.9314V153.837H73.7764V152.056H75.2714V153.837H77.0134V155.046H75.2714ZM79.8613 151.38V161H78.3793V151.38H79.8613ZM82.561 152.888C82.2924 152.888 82.067 152.797 81.885 152.615C81.703 152.433 81.612 152.208 81.612 151.939C81.612 151.67 81.703 151.445 81.885 151.263C82.067 151.081 82.2924 150.99 82.561 150.99C82.821 150.99 83.042 151.081 83.224 151.263C83.406 151.445 83.497 151.67 83.497 151.939C83.497 152.208 83.406 152.433 83.224 152.615C83.042 152.797 82.821 152.888 82.561 152.888ZM83.289 153.837V161H81.807V153.837H83.289ZM87.8348 161.117C87.2714 161.117 86.7644 161.017 86.3138 160.818C85.8718 160.61 85.5208 160.333 85.2608 159.986C85.0008 159.631 84.8621 159.236 84.8448 158.803H86.3788C86.4048 159.106 86.5478 159.362 86.8078 159.57C87.0764 159.769 87.4101 159.869 87.8088 159.869C88.2248 159.869 88.5454 159.791 88.7708 159.635C89.0048 159.47 89.1218 159.262 89.1218 159.011C89.1218 158.742 88.9918 158.543 88.7318 158.413C88.4804 158.283 88.0774 158.14 87.5228 157.984C86.9854 157.837 86.5478 157.694 86.2098 157.555C85.8718 157.416 85.5771 157.204 85.3258 156.918C85.0831 156.632 84.9618 156.255 84.9618 155.787C84.9618 155.406 85.0744 155.059 85.2998 154.747C85.5251 154.426 85.8458 154.175 86.2618 153.993C86.6864 153.811 87.1718 153.72 87.7178 153.72C88.5324 153.72 89.1868 153.928 89.6808 154.344C90.1834 154.751 90.4521 155.31 90.4868 156.021H89.0048C88.9788 155.7 88.8488 155.445 88.6148 155.254C88.3808 155.063 88.0644 154.968 87.6658 154.968C87.2758 154.968 86.9768 155.042 86.7688 155.189C86.5608 155.336 86.4568 155.531 86.4568 155.774C86.4568 155.965 86.5261 156.125 86.6648 156.255C86.8034 156.385 86.9724 156.489 87.1718 156.567C87.3711 156.636 87.6658 156.727 88.0558 156.84C88.5758 156.979 89.0004 157.122 89.3298 157.269C89.6678 157.408 89.9581 157.616 90.2008 157.893C90.4434 158.17 90.5691 158.539 90.5778 158.998C90.5778 159.405 90.4651 159.769 90.2398 160.09C90.0144 160.411 89.6938 160.662 89.2778 160.844C88.8704 161.026 88.3894 161.117 87.8348 161.117ZM93.9081 155.046V159.011C93.9081 159.28 93.9688 159.475 94.0901 159.596C94.2201 159.709 94.4368 159.765 94.7401 159.765H95.6501V161H94.4801C93.8128 161 93.3014 160.844 92.9461 160.532C92.5908 160.22 92.4131 159.713 92.4131 159.011V155.046H91.5681V153.837H92.4131V152.056H93.9081V153.837H95.6501V155.046H93.9081ZM99.899 156.463C99.899 155.579 100.103 154.786 100.51 154.084C100.926 153.382 101.485 152.836 102.187 152.446C102.898 152.047 103.673 151.848 104.514 151.848C105.476 151.848 106.33 152.086 107.075 152.563C107.829 153.031 108.375 153.698 108.713 154.565H106.932C106.698 154.088 106.373 153.733 105.957 153.499C105.541 153.265 105.06 153.148 104.514 153.148C103.916 153.148 103.383 153.282 102.915 153.551C102.447 153.82 102.079 154.205 101.81 154.708C101.55 155.211 101.42 155.796 101.42 156.463C101.42 157.13 101.55 157.715 101.81 158.218C102.079 158.721 102.447 159.111 102.915 159.388C103.383 159.657 103.916 159.791 104.514 159.791C105.06 159.791 105.541 159.674 105.957 159.44C106.373 159.206 106.698 158.851 106.932 158.374H108.713C108.375 159.241 107.829 159.908 107.075 160.376C106.33 160.844 105.476 161.078 104.514 161.078C103.665 161.078 102.889 160.883 102.187 160.493C101.485 160.094 100.926 159.544 100.51 158.842C100.103 158.14 99.899 157.347 99.899 156.463ZM109.954 157.386C109.954 156.667 110.101 156.03 110.396 155.475C110.699 154.92 111.106 154.491 111.618 154.188C112.138 153.876 112.71 153.72 113.334 153.72C113.897 153.72 114.387 153.833 114.803 154.058C115.227 154.275 115.565 154.548 115.817 154.877V153.837H117.312V161H115.817V159.934C115.565 160.272 115.223 160.554 114.79 160.779C114.356 161.004 113.862 161.117 113.308 161.117C112.692 161.117 112.129 160.961 111.618 160.649C111.106 160.328 110.699 159.886 110.396 159.323C110.101 158.751 109.954 158.105 109.954 157.386ZM115.817 157.412C115.817 156.918 115.713 156.489 115.505 156.125C115.305 155.761 115.041 155.484 114.712 155.293C114.382 155.102 114.027 155.007 113.646 155.007C113.264 155.007 112.909 155.102 112.58 155.293C112.25 155.475 111.982 155.748 111.774 156.112C111.574 156.467 111.475 156.892 111.475 157.386C111.475 157.88 111.574 158.313 111.774 158.686C111.982 159.059 112.25 159.345 112.58 159.544C112.918 159.735 113.273 159.83 113.646 159.83C114.027 159.83 114.382 159.735 114.712 159.544C115.041 159.353 115.305 159.076 115.505 158.712C115.713 158.339 115.817 157.906 115.817 157.412ZM122.872 153.72C123.436 153.72 123.938 153.837 124.38 154.071C124.831 154.305 125.182 154.652 125.433 155.111C125.685 155.57 125.81 156.125 125.81 156.775V161H124.341V156.996C124.341 156.355 124.181 155.865 123.86 155.527C123.54 155.18 123.102 155.007 122.547 155.007C121.993 155.007 121.551 155.18 121.221 155.527C120.901 155.865 120.74 156.355 120.74 156.996V161H119.258V153.837H120.74V154.656C120.983 154.361 121.291 154.132 121.663 153.967C122.045 153.802 122.448 153.72 122.872 153.72ZM127.207 157.386C127.207 156.667 127.354 156.03 127.649 155.475C127.952 154.92 128.359 154.491 128.871 154.188C129.391 153.876 129.967 153.72 130.6 153.72C131.068 153.72 131.527 153.824 131.978 154.032C132.437 154.231 132.801 154.5 133.07 154.838V151.38H134.565V161H133.07V159.921C132.827 160.268 132.489 160.554 132.056 160.779C131.631 161.004 131.141 161.117 130.587 161.117C129.963 161.117 129.391 160.961 128.871 160.649C128.359 160.328 127.952 159.886 127.649 159.323C127.354 158.751 127.207 158.105 127.207 157.386ZM133.07 157.412C133.07 156.918 132.966 156.489 132.758 156.125C132.558 155.761 132.294 155.484 131.965 155.293C131.635 155.102 131.28 155.007 130.899 155.007C130.517 155.007 130.162 155.102 129.833 155.293C129.503 155.475 129.235 155.748 129.027 156.112C128.827 156.467 128.728 156.892 128.728 157.386C128.728 157.88 128.827 158.313 129.027 158.686C129.235 159.059 129.503 159.345 129.833 159.544C130.171 159.735 130.526 159.83 130.899 159.83C131.28 159.83 131.635 159.735 131.965 159.544C132.294 159.353 132.558 159.076 132.758 158.712C132.966 158.339 133.07 157.906 133.07 157.412ZM137.265 152.888C136.996 152.888 136.771 152.797 136.589 152.615C136.407 152.433 136.316 152.208 136.316 151.939C136.316 151.67 136.407 151.445 136.589 151.263C136.771 151.081 136.996 150.99 137.265 150.99C137.525 150.99 137.746 151.081 137.928 151.263C138.11 151.445 138.201 151.67 138.201 151.939C138.201 152.208 138.11 152.433 137.928 152.615C137.746 152.797 137.525 152.888 137.265 152.888ZM137.993 153.837V161H136.511V153.837H137.993ZM139.445 157.386C139.445 156.667 139.592 156.03 139.887 155.475C140.19 154.92 140.598 154.491 141.109 154.188C141.629 153.876 142.205 153.72 142.838 153.72C143.306 153.72 143.765 153.824 144.216 154.032C144.675 154.231 145.039 154.5 145.308 154.838V151.38H146.803V161H145.308V159.921C145.065 160.268 144.727 160.554 144.294 160.779C143.869 161.004 143.38 161.117 142.825 161.117C142.201 161.117 141.629 160.961 141.109 160.649C140.598 160.328 140.19 159.886 139.887 159.323C139.592 158.751 139.445 158.105 139.445 157.386ZM145.308 157.412C145.308 156.918 145.204 156.489 144.996 156.125C144.797 155.761 144.532 155.484 144.203 155.293C143.874 155.102 143.518 155.007 143.137 155.007C142.756 155.007 142.4 155.102 142.071 155.293C141.742 155.475 141.473 155.748 141.265 156.112C141.066 156.467 140.966 156.892 140.966 157.386C140.966 157.88 141.066 158.313 141.265 158.686C141.473 159.059 141.742 159.345 142.071 159.544C142.409 159.735 142.764 159.83 143.137 159.83C143.518 159.83 143.874 159.735 144.203 159.544C144.532 159.353 144.797 159.076 144.996 158.712C145.204 158.339 145.308 157.906 145.308 157.412ZM148.255 157.386C148.255 156.667 148.403 156.03 148.697 155.475C149.001 154.92 149.408 154.491 149.919 154.188C150.439 153.876 151.011 153.72 151.635 153.72C152.199 153.72 152.688 153.833 153.104 154.058C153.529 154.275 153.867 154.548 154.118 154.877V153.837H155.613V161H154.118V159.934C153.867 160.272 153.525 160.554 153.091 160.779C152.658 161.004 152.164 161.117 151.609 161.117C150.994 161.117 150.431 160.961 149.919 160.649C149.408 160.328 149.001 159.886 148.697 159.323C148.403 158.751 148.255 158.105 148.255 157.386ZM154.118 157.412C154.118 156.918 154.014 156.489 153.806 156.125C153.607 155.761 153.343 155.484 153.013 155.293C152.684 155.102 152.329 155.007 151.947 155.007C151.566 155.007 151.211 155.102 150.881 155.293C150.552 155.475 150.283 155.748 150.075 156.112C149.876 156.467 149.776 156.892 149.776 157.386C149.776 157.88 149.876 158.313 150.075 158.686C150.283 159.059 150.552 159.345 150.881 159.544C151.219 159.735 151.575 159.83 151.947 159.83C152.329 159.83 152.684 159.735 153.013 159.544C153.343 159.353 153.607 159.076 153.806 158.712C154.014 158.339 154.118 157.906 154.118 157.412ZM159.289 155.046V159.011C159.289 159.28 159.35 159.475 159.471 159.596C159.601 159.709 159.818 159.765 160.121 159.765H161.031V161H159.861C159.194 161 158.682 160.844 158.327 160.532C157.972 160.22 157.794 159.713 157.794 159.011V155.046H156.949V153.837H157.794V152.056H159.289V153.837H161.031V155.046H159.289ZM168.962 157.243C168.962 157.512 168.945 157.754 168.91 157.971H163.437C163.48 158.543 163.693 159.002 164.074 159.349C164.455 159.696 164.923 159.869 165.478 159.869C166.275 159.869 166.839 159.535 167.168 158.868H168.767C168.55 159.527 168.156 160.068 167.584 160.493C167.021 160.909 166.319 161.117 165.478 161.117C164.793 161.117 164.178 160.965 163.632 160.662C163.095 160.35 162.67 159.917 162.358 159.362C162.055 158.799 161.903 158.149 161.903 157.412C161.903 156.675 162.05 156.03 162.345 155.475C162.648 154.912 163.069 154.478 163.606 154.175C164.152 153.872 164.776 153.72 165.478 153.72C166.154 153.72 166.756 153.867 167.285 154.162C167.814 154.457 168.225 154.873 168.52 155.41C168.815 155.939 168.962 156.55 168.962 157.243ZM167.415 156.775C167.406 156.229 167.211 155.791 166.83 155.462C166.449 155.133 165.976 154.968 165.413 154.968C164.902 154.968 164.464 155.133 164.1 155.462C163.736 155.783 163.519 156.22 163.45 156.775H167.415ZM173.02 161.117C172.457 161.117 171.95 161.017 171.499 160.818C171.057 160.61 170.706 160.333 170.446 159.986C170.186 159.631 170.048 159.236 170.03 158.803H171.564C171.59 159.106 171.733 159.362 171.993 159.57C172.262 159.769 172.596 159.869 172.994 159.869C173.41 159.869 173.731 159.791 173.956 159.635C174.19 159.47 174.307 159.262 174.307 159.011C174.307 158.742 174.177 158.543 173.917 158.413C173.666 158.283 173.263 158.14 172.708 157.984C172.171 157.837 171.733 157.694 171.395 157.555C171.057 157.416 170.763 157.204 170.511 156.918C170.269 156.632 170.147 156.255 170.147 155.787C170.147 155.406 170.26 155.059 170.485 154.747C170.711 154.426 171.031 154.175 171.447 153.993C171.872 153.811 172.357 153.72 172.903 153.72C173.718 153.72 174.372 153.928 174.866 154.344C175.369 154.751 175.638 155.31 175.672 156.021H174.19C174.164 155.7 174.034 155.445 173.8 155.254C173.566 155.063 173.25 154.968 172.851 154.968C172.461 154.968 172.162 155.042 171.954 155.189C171.746 155.336 171.642 155.531 171.642 155.774C171.642 155.965 171.712 156.125 171.85 156.255C171.989 156.385 172.158 156.489 172.357 156.567C172.557 156.636 172.851 156.727 173.241 156.84C173.761 156.979 174.186 157.122 174.515 157.269C174.853 157.408 175.144 157.616 175.386 157.893C175.629 158.17 175.755 158.539 175.763 158.998C175.763 159.405 175.651 159.769 175.425 160.09C175.2 160.411 174.879 160.662 174.463 160.844C174.056 161.026 173.575 161.117 173.02 161.117Z" fill="#0A66C2"/>
<rect x="31" y="144" width="158" height="24" rx="12" stroke="#0A66C2" stroke-width="2"/>
<defs>
<clipPath id="clip0_394_4">
<rect width="60" height="60" fill="white" transform="translate(80 51)"/>
</clipPath>
</defs>
</svg>
