<svg width="100" height="100" viewBox="0 0 100 100" fill="none" xmlns="http://www.w3.org/2000/svg">
<path d="M91.7012 61.9141C93.0957 60.3574 93.9453 58.3027 93.9453 56.0547C93.9453 51.209 90.002 47.2656 85.1562 47.2656H68.0977C69.7871 42.1387 70.5078 35.3359 70.5078 32.4199V29.4922C70.5078 23.0312 65.25 17.7734 58.7891 17.7734H55.8594C54.5156 17.7734 53.3438 18.6875 53.0176 19.9922L51.4219 26.377C49.1855 35.3184 42.0859 45.1836 34.7383 46.9766C33.4512 43.7188 30.2734 41.4062 26.5625 41.4062H8.98438C7.36719 41.4062 6.05469 42.7188 6.05469 44.3359V97.0703C6.05469 98.6875 7.36719 100 8.98438 100H26.5625C30.0566 100 33.0801 97.9512 34.4961 94.9902L44.5625 98.3457C47.8535 99.4434 51.2832 100 54.7539 100H79.2969C84.1426 100 88.0859 96.0566 88.0859 91.2109C88.0859 90.0684 87.8672 88.9746 87.4688 87.9727C91.1953 86.9551 93.9453 83.5391 93.9453 79.4922C93.9453 77.2441 93.0957 75.1895 91.7012 73.6328C93.0957 72.0762 93.9453 70.0215 93.9453 67.7734C93.9453 65.5254 93.0957 63.4707 91.7012 61.9141ZM29.4922 91.2109C29.4922 92.8262 28.1777 94.1406 26.5625 94.1406H11.9141V47.2656H26.5625C28.1777 47.2656 29.4922 48.5801 29.4922 50.1953V91.2109ZM79.2969 64.8438H85.1562C86.7715 64.8438 88.0859 66.1582 88.0859 67.7734C88.0859 69.3887 86.7715 70.7031 85.1562 70.7031H79.2969C77.6797 70.7031 76.3672 72.0156 76.3672 73.6328C76.3672 75.25 77.6797 76.5625 79.2969 76.5625H85.1562C86.7715 76.5625 88.0859 77.877 88.0859 79.4922C88.0859 81.1074 86.7715 82.4219 85.1562 82.4219H79.2969C77.6797 82.4219 76.3672 83.7344 76.3672 85.3516C76.3672 86.9688 77.6797 88.2812 79.2969 88.2812C80.9121 88.2812 82.2266 89.5957 82.2266 91.2109C82.2266 92.8262 80.9121 94.1406 79.2969 94.1406H54.7539C51.9141 94.1406 49.1074 93.6855 46.4141 92.7871L35.3516 89.0996V52.8477C39.9473 51.9746 44.4453 49.0645 48.5059 44.3008C52.4707 39.6484 55.6855 33.4805 57.1055 27.7988L58.1465 23.6328H58.7891C62.0195 23.6328 64.6484 26.2617 64.6484 29.4922V32.4199C64.6484 36.3535 63.418 43.8984 61.8438 47.2656H55.8594C54.2422 47.2656 52.9297 48.5781 52.9297 50.1953C52.9297 51.8125 54.2422 53.125 55.8594 53.125H85.1562C86.7715 53.125 88.0859 54.4395 88.0859 56.0547C88.0859 57.6699 86.7715 58.9844 85.1562 58.9844H79.2969C77.6797 58.9844 76.3672 60.2969 76.3672 61.9141C76.3672 63.5312 77.6797 64.8438 79.2969 64.8438Z" fill="#0A66C2"/>
<path d="M20.7031 88.2812C22.3211 88.2812 23.6328 86.9696 23.6328 85.3516C23.6328 83.7335 22.3211 82.4219 20.7031 82.4219C19.0851 82.4219 17.7734 83.7335 17.7734 85.3516C17.7734 86.9696 19.0851 88.2812 20.7031 88.2812Z" fill="black"/>
<path d="M61.7187 0C60.1007 0 58.789 1.31172 58.789 2.92969V8.98438C58.789 10.6023 60.1007 11.9141 61.7187 11.9141C63.3366 11.9141 64.6483 10.6023 64.6483 8.98438V2.92969C64.6483 1.31172 63.3366 0 61.7187 0ZM49.289 12.9195L45.1458 8.77637C44.0019 7.63223 42.1468 7.63223 41.0026 8.77637C39.8585 9.92051 39.8585 11.7754 41.0026 12.9195L45.1458 17.0627C46.2897 18.2066 48.145 18.2068 49.289 17.0627C50.4331 15.9186 50.4331 14.0637 49.289 12.9195ZM82.4347 8.77637C81.2907 7.63223 79.4356 7.63223 78.2915 8.77637L74.1483 12.9193C73.0042 14.0635 73.0042 15.9184 74.1483 17.0625C75.2923 18.2066 77.1474 18.2068 78.2915 17.0627L82.4347 12.9195C83.5788 11.7754 83.5788 9.92051 82.4347 8.77637Z" fill="#FE8C23"/>
</svg>
